<?xml version="1.0" standalone="no"?>
<!DOCTYPE svg PUBLIC "-//W3C//DTD SVG 1.1//EN" "http://www.w3.org/Graphics/SVG/1.1/DTD/svg11.dtd" >
<!--
2013-9-30: Created.
-->
<svg>
<metadata>
Created by iconfont
</metadata>
<defs>

<font id="iconfont" horiz-adv-x="1024" >
  <font-face
    font-family="iconfont"
    font-weight="500"
    font-stretch="normal"
    units-per-em="1024"
    ascent="896"
    descent="-128"
  />
    <missing-glyph />
    
    <glyph glyph-name="x" unicode="x" horiz-adv-x="1001"
d="M281 543q-27 -1 -53 -1h-83q-18 0 -36.5 -6t-32.5 -18.5t-23 -32t-9 -45.5v-76h912v41q0 16 -0.5 30t-0.5 18q0 13 -5 29t-17 29.5t-31.5 22.5t-49.5 9h-133v-97h-438v97zM955 310v-52q0 -23 0.5 -52t0.5 -58t-10.5 -47.5t-26 -30t-33 -16t-31.5 -4.5q-14 -1 -29.5 -0.5
t-29.5 0.5h-32l-45 128h-439l-44 -128h-29h-34q-20 0 -45 1q-25 0 -41 9.5t-25.5 23t-13.5 29.5t-4 30v167h911zM163 247q-12 0 -21 -8.5t-9 -21.5t9 -21.5t21 -8.5q13 0 22 8.5t9 21.5t-9 21.5t-22 8.5zM316 123q-8 -26 -14 -48q-5 -19 -10.5 -37t-7.5 -25t-3 -15t1 -14.5
t9.5 -10.5t21.5 -4h37h67h81h80h64h36q23 0 34 12t2 38q-5 13 -9.5 30.5t-9.5 34.5q-5 19 -11 39h-368zM336 498v228q0 11 2.5 23t10 21.5t20.5 15.5t34 6h188q31 0 51.5 -14.5t20.5 -52.5v-227h-327z" />
    

    
    <glyph glyph-name="hongjiujiubeigaojiaobei" unicode="&#58881;" d="M145.999872 391.010048c0-187.876352 138.867712-343.135232 319.50336-368.924672l0-85.74976c0-23.422976-19.178496-42.602496-42.601472-42.602496L279.822336-106.26688c-29.391872 0-53.251072-23.837696-53.251072-53.250048 0-29.372416 23.8592-53.251072 53.251072-53.251072L752.970752-212.768c29.392896 0 53.250048 23.878656 53.250048 53.251072 0 29.412352-23.857152 53.250048-53.250048 53.250048L614.6048-106.26688c-23.419904 0-42.600448 19.178496-42.600448 42.602496l0 85.74976c180.635648 25.790464 319.502336 181.049344 319.502336 368.924672L891.506688 726.800128c0 47.092736-38.127616 85.200896-85.198848 85.200896L231.199744 812.001024c-47.071232 0-85.200896-38.107136-85.200896-85.200896L145.998848 391.010048zM299.3664 705.499904l438.774784 0c25.979904 0 46.864384-20.88448 46.864384-46.844928l0-188.808192c0-26.001408-20.88448-46.885888-46.864384-46.885888L299.3664 422.960896c-25.980928 0-46.866432 20.88448-46.866432 46.885888L252.499968 658.654976C252.499968 684.615424 273.385472 705.499904 299.3664 705.499904z"  horiz-adv-x="1024" />

    
    <glyph glyph-name="iconfontbijiben1" unicode="&#58929;" d="M957.438368 552.823146c35.0333 0 63.490565 28.463262 63.490565 63.487963L1020.928932 743.287035 893.947803 743.287035l0 63.48694L68.574558 806.773975c-34.908451 0-63.490565-28.571732-63.490565-63.48694l0-888.829438c0-34.901905 28.582113-63.487963 63.490565-63.487963l825.373245 0L893.947803 44.920464l63.490565 0c35.0333 0 63.490565 28.463262 63.490565 63.487963L1020.928932 235.384353 893.947803 235.384353l0 63.48694 63.490565 0c35.0333 0 63.490565 28.464285 63.490565 63.488986L1020.928932 489.335183 893.947803 489.335183l0 63.487963L957.438368 552.823146zM576.496004 552.522294c69.937658 0 126.666961-56.698327 126.666961-126.675074 0-69.964468-56.730327-126.660748-126.666961-126.660748-69.939704 0-126.673101 56.69628-126.673101 126.660748C449.823926 495.823967 506.557323 552.522294 576.496004 552.522294zM259.044205-145.542402 195.554664-145.542402 195.554664 743.287035l63.489541 0L259.044205-145.542402zM766.966674 44.920464l-380.94134 0 0 63.487963c0 70.157873 56.793774 126.975926 126.980106 126.975926l126.982152 0c70.183261 0 126.979082-56.818053 126.979082-126.975926L766.966674 44.920464z"  horiz-adv-x="1024" />

    
    <glyph glyph-name="hunshalifu" unicode="&#58996;" d="M640 428c0 0-42.666667 85.333333-42.666667 170.666667 0 95.104 85.333333 85.333333 85.333333 85.333333s-20.48 70.826667-85.333333 85.333333c0 0-21.973333-51.754667-85.333333-50.730667C448.64 717.578667 426.666667 769.333333 426.666667 769.333333 361.813333 754.826667 341.333333 684 341.333333 684s85.333333 9.770667 85.333333-85.333333c0-85.333333-42.666667-170.666667-42.666667-170.666667-107.093333-275.712-341.333333-469.333333-341.333333-469.333333 85.333333-128 469.333333-128 469.333333-128s384 0 469.333333 128C981.333333-41.333333 747.093333 152.288 640 428z"  horiz-adv-x="1024" />

    
    <glyph glyph-name="icon5" unicode="&#58884;" d="M106.158297 266.048747 74.401012 266.048747l-15.879666 14.114462c0 0 28.228925 59.986209 47.63695 72.336492s104.0948 116.445082 107.623159 144.674007 102.33062 109.387339 121.738645 116.445082c0 0 104.0948 1.76418 128.795365-14.114462s104.095823-3.411703 105.860003 14.172791 135.853108-7.116071 139.381467-15.936971 58.222029-42.34441 74.100672-82.923618c0 0 72.336492-146.438187 88.216157-148.202367 0 0 67.043952-86.451978 72.336492-89.980337s-10.586103-10.586103-10.586103-10.586103 17.641799-12.350283 21.171182-12.350283c0 0 10.586103-15.878642 0-28.228925 0 0-142.908804-137.617287-165.845189-148.20339 0 0-68.807109-61.752436-86.450954-51.16531 0 0-68.808132-35.285644-91.744517-31.757285 0 0-158.788469-19.903306-185.254238-0.24764 0 0-107.790982 28.91761-129.282458 44.269249s-175.002756 135.905296-178.072675 141.637858-59.623959 57.926294-59.623959 57.926294L106.158297 266.048747zM256.618077 248.402855l15.349593-12.278651 12.279674 4.604878 61.395302-15.349593 13.814634-21.488407c0 0 13.814634-19.953448 13.814634-7.673773s32.232099 33.767058 32.232099 33.767058l38.372959-9.208732 36.836977-12.279674 31.289634 0 17.827017 10.744715 35.302017-1.534959 18.418488-9.209756 4.604878 13.81361 42.196031-7.673773c0 0-5.359055 32.232099 6.92062 29.16218s112.045889 18.418488 112.045889 18.418488l52.185546 0 13.814634 0c0 0-13.814634 16.884552-27.628244 13.814634S672.57158 342.031279 677.176458 342.031279s12.278651 19.953448 12.278651 19.953448-15.34857-9.209756-19.953448-9.209756-16.883529-4.604878-19.953448 0 30.697139 38.371936 30.697139 38.371936-9.208732-7.674796-19.953448-10.744715-26.092261-9.209756-29.942963-6.139837-54.474682 4.604878-54.474682 4.604878c-6.138814 0-38.371936 16.884552-38.371936 19.953448s0 55.256488 0 55.256488l-13.814634 0c3.069919-10.744715-14.676257-58.325383-14.676257-58.325383-0.862647-9.209756-48.254004-3.069919-48.254004-3.069919l-6.139837-13.814634c0 0-53.720505-1.534959-58.325383 0s-21.488407 23.023366-26.093285 26.093285-15.349593 21.488407-18.418488 0 27.628244-29.163203 27.628244-29.163203-13.814634-10.744715-21.488407-10.744715-33.767058 4.604878-32.233122 0 18.419512-16.884552 18.419512-16.884552 0 0-7.674796-9.209756-18.418488-7.674796-32.232099-13.81361-26.093285-15.349593-26.093285-15.349593l-50.65161 0c0 0-4.604878-12.279674-13.81361-21.488407-9.209756-9.208732-84.418668-18.418488-84.418668-18.418488C121.681852 268.907864 256.618077 248.402855 256.618077 248.402855z"  horiz-adv-x="1024" />

    
    <glyph glyph-name="dingdan" unicode="&#59077;" d="M592.935334 684.592238 424.116417 684.592238c-20.707624 0-37.261649-18.424628-37.261649-41.194214 0-22.824845 16.582677-41.304731 37.261649-41.304731l169.864736 0c19.661805 0 36.244482 18.479887 36.244482 41.304731C630.225635 666.16761 613.670587 684.592238 592.935334 684.592238zM776.247336 657.091908l-48.674583 0-35.392068 0c0.852414-4.50971 1.347694-9.074679 1.347694-13.694907 0.027629-34.676777-25.134447-68.804039-55.053873-68.804039L380.199185 574.592962c-31.487132 0-56.676837 34.127262-56.676837 68.804039 0.027629 4.620227 0.522909 9.185196 1.375324 13.694907l-31.927153 0-53.156664 0c-68.391646 0-85.193311-38.774095-85.193311-94.708012l0-554.060955c0-60.086493 24.062022-93.718475 90.363054-93.718475l526.092973 0c66.301032 0 98.531084 26.371624 98.531084 93.690846L869.607654 562.383896C869.608677 618.317813 839.441611 657.091908 776.247336 657.091908zM689.872107 110.0406 324.292897 110.0406c-13.474896 0-26.922163 16.527418-26.922163 30.029944 0 13.447267 11.384281 24.969695 24.859177 24.969695l364.53339 0c13.474896 0 24.859177-10.477632 25.877367-24.969695C712.641693 126.568019 703.345979 110.0406 689.872107 110.0406zM691.356924 256.747917 325.777715 256.747917c-13.474896 0-22.054295 14.492062-22.054295 27.994588 0 13.502525 11.385305 27.005051 24.859177 27.005051l364.53339 0c13.474896 0 24.859177-12.511965 25.877367-27.005051C718.993355 271.241003 704.804191 256.747917 691.356924 256.747917zM691.356924 407.418498 325.777715 407.418498c-13.474896 0-22.054295 14.492062-22.054295 27.994588 0 13.502525 11.385305 27.004027 24.859177 27.004027l364.53339 0c13.474896 0 24.859177-12.511965 25.877367-27.004027C718.993355 421.910561 704.804191 407.418498 691.356924 407.418498z"  horiz-adv-x="1024" />

    
    <glyph glyph-name="hunbanshichanghunche6868" unicode="&#58920;" d="M878.646 408.559C870.404 583.882 725.801 724.088 548.698 724.088c-177.485 0-322.353-140.823-330.022-316.691-100.353-12.382-178.36-98.132-178.36-201.926l0-214.515c0-17.339 14.03-31.383 31.338-31.383l126.478 0c17.515-48.69 63.978-83.661 118.566-83.661 54.596 0 101.051 34.971 118.581 83.661l195.213 0c17.529-48.69 63.985-83.661 118.581-83.661s101.059 34.971 118.581 83.661l84.698 0c17.294 0 31.331 14.044 31.331 31.383L983.683 293.338C983.684 353.603 937.44 403.177 878.646 408.559zM548.698 661.338c142.36 0 258.831-111.779 267.265-252.25l-36.654 0c-8.368 120.235-108.463 215.544-230.61 215.544-122.154 0-222.228-95.309-230.596-215.544l-36.654 0C289.867 549.559 406.345 661.338 548.698 661.338zM716.639 409.088 380.771 409.088c8.154 85.604 80.331 152.794 167.927 152.794C636.286 561.882 708.463 494.691 716.639 409.088zM316.698-61.338c-34.985 0-63.441 28.5-63.441 63.529 0 35.044 28.456 63.544 63.441 63.544 34.978 0 63.456-28.5 63.456-63.544C380.154-32.838 351.676-61.338 316.698-61.338zM749.073-61.338c-34.993 0-63.464 28.5-63.464 63.529 0 35.044 28.471 63.544 63.464 63.544 34.985 0 63.463-28.5 63.463-63.544C812.536-32.838 784.059-61.338 749.073-61.338zM921.021 22.323l-47.573 0c-9.677 60.089-61.691 106.162-124.375 106.162-62.685 0-114.706-46.073-124.375-106.162L441.065 22.323c-9.676 60.089-61.684 106.162-124.367 106.162-62.691 0-114.677-46.073-124.353-106.162l-89.36 0L102.985 205.471c0 77.676 63.103 140.882 140.684 140.882l624.405 0c29.19 0 52.948-23.779 52.948-53.015L921.022 22.323zM784.734 297.735l-71.315 0c-17.31 0-31.339-14.044-31.339-31.368 0-17.338 14.029-31.382 31.339-31.382l71.315 0c17.295 0 31.331 14.044 31.331 31.382C816.065 283.691 802.029 297.735 784.734 297.735z"  horiz-adv-x="1024" />

    
    <glyph glyph-name="hunshasheying" unicode="&#59325;" d="M336.335676 679.166669c82.208327 0 158.160159-35.725666 175.675068-56.141648 18.97619 14.786775 98.237395 53.05945 182.638667 53.05945 57.044204 0 116.439966-17.503653 161.03872-71.601758 123.997082-150.463873 38.499849-352.159572-41.35692-445.031772-77.137845-89.711208-235.183394-155.043169-302.320467-219.989343-67.183122 64.946174-225.206158 130.278135-302.344003 219.989343C129.809973 252.323141 44.313763 454.018839 168.310845 604.482713 214.621591 660.635617 277.101597 679.177925 336.335676 679.166669M336.313164 741.816544c-88.967264 0-163.777087-33.70566-216.344327-97.474009-147.175991-178.586374-55.399751-412.251182 42.200124-525.745049 50.488905-58.745962 126.919644-105.661482 194.353476-147.049101 45.305859-27.815509 88.122013-54.098105 111.941512-77.116355l43.547819-42.110073 43.523259 42.110073c23.818475 23.01825 66.635653 49.301869 111.941512 77.116355 67.433832 41.387619 143.864572 88.303138 194.3545 147.049101 97.576339 113.493867 189.376115 347.159698 42.22366 525.722536-50.946322 61.782112-123.359562 94.414323-209.404264 94.414323-70.104661 0-135.89404-21.579481-178.757267-41.801035-44.89449 24.902156-111.712291 44.884256-179.556469 44.884256L336.313164 741.817568 336.313164 741.816544zM800.995485 557.509888c-92.986811 112.762203-262.267239 36.446074-288.983717 15.59621-25.348318 29.538757-196.021465 97.165993-289.008276-15.59621C118.73473 430.989333 190.62199 261.399867 257.781576 183.302161c9.797134-11.418051 21.305235-22.311145 33.728172-32.849152-0.341784 19.068288-0.068562 39.116903 1.346671 60.879556 4.659113 72.332399 45.671179 144.971789 108.721167 144.971789-40.008202 0-72.503291 32.437783-72.503291 72.492034 0 40.041972 32.495088 72.492034 72.503291 72.492034 40.008202 0 72.479755-32.44904 72.479755-72.492034 0-40.054251-32.470529-72.492034-72.479755-72.492034 60.080354 0 108.721167-72.480778 108.721167-144.971789 0 72.491011 48.638767 144.971789 108.71912 144.971789-40.008202 0-72.478731 32.437783-72.478731 72.492034 0 40.041972 32.44904 72.492034 72.478731 72.492034 40.077787 0 72.505337-32.44904 72.505337-72.492034 0-40.054251-32.426527-72.492034-72.505337-72.492034 63.073524 0 108.744703-72.480778 108.744703-144.971789 0 0 2.968611-25.370831 4.337795-61.199851 12.583596 10.641361 24.207331 21.636786 34.117029 33.168424C833.376986 261.399867 905.263224 430.989333 800.995485 557.509888z"  horiz-adv-x="1024" />

    
    <glyph glyph-name="duihua" unicode="&#58928;" d="M349.257143 372.228571c-30.321371 0-54.857143-24.535771-54.857143-54.857143 0-30.2848 24.535771-54.857143 54.857143-54.857143s54.857143 24.572343 54.857143 54.857143C404.114286 347.694629 379.578514 372.228571 349.257143 372.228571zM532.114286 372.228571c-30.321371 0-54.857143-24.572343-54.857143-54.857143 0-30.2848 24.535771-54.857143 54.857143-54.857143s54.857143 24.572343 54.857143 54.857143C586.971429 347.658057 562.435657 372.228571 532.114286 372.228571zM714.971429 372.228571c-30.321371 0-54.857143-24.535771-54.857143-54.857143 0-30.2848 24.535771-54.857143 54.857143-54.857143s54.857143 24.572343 54.857143 54.857143C769.828571 347.694629 745.2928 372.228571 714.971429 372.228571zM937.865143 36.978286c57.607314 83.000686 87.963429 179.5712 87.963429 280.427886 0 272.250514-221.463771 493.714286-493.714286 493.714286s-493.714286-221.500343-493.714286-493.750857c0-272.1792 221.463771-493.677714 493.714286-493.714286 79.3216 0 157.856914 19.392 228.178286 56.1792l181.893486-54.606629c12.999314-3.893029 26.858057-0.356571 36.357486 9.179429 9.499429 9.499429 13.035886 23.464229 9.179429 36.357486L937.865143 36.978286zM766.721829-45.735314c-9.499429 2.856229-19.821714 1.678629-28.500114-3.178057C675.399314-84.449829 604.114286-103.2 532.114286-103.2c-231.892114 0.036571-420.571429 188.714057-420.571429 420.571429 0 231.928686 188.679314 420.608 420.571429 420.608s420.571429-188.679314 420.571429-420.571429c0-91.143314-29.143771-178.177829-84.286171-251.7504-6.965029-9.285486-9.106286-21.321143-5.7856-32.427886l35.536457-118.392686L766.721829-45.735314z"  horiz-adv-x="1026" />

    
    <glyph glyph-name="follow" unicode="&#59243;" d="M1024.091 382.098c0-0.439 0-0.878-0.073-1.317 0-0.219 0-0.439-0.073-0.731-0.073-0.366-0.073-0.658-0.073-0.951-0.146-0.366-0.146-0.731-0.293-1.097 0 0 0 0 0-0.146-1.317-8.119-4.827-15.726-10.679-21.577-10.752-13.239-22.528-25.6-34.377-37.595-63.781-65.317-136.997-123.392-217.234-165.669-51.127-26.917-105.911-48.64-162.743-59.246-62.464-11.483-124.928-10.825-187.026 2.633-107.52 23.552-204.873 81.92-289.938 151.845-39.278 32.549-78.19 68.096-110.885 108.032-14.263 17.262-14.263 38.034 0 55.515 10.752 13.093 22.528 25.381 34.304 37.522 63.854 65.243 137.070 123.465 217.234 165.669 51.127 26.843 105.911 48.713 162.743 59.099 62.391 11.557 124.855 10.898 187.026-2.633 107.52-23.552 204.727-81.92 289.865-151.771 39.497-32.402 78.336-67.95 111.104-107.813 5.705-5.925 9.435-13.678 10.679-21.723 0 0 0-0.073 0-0.146 0.073-0.293 0.146-0.658 0.146-1.17 0.073-0.366 0.073-0.585 0.073-0.951 0.073-0.219 0.219-0.439 0.219-0.658 0-0.439 0.073-0.878 0.073-1.39 0-0.731 0.073-1.39 0.073-1.902s-0.073-1.243-0.146-1.829zM512.165 585.435c-106.057 0-192-86.528-192-193.317 0-106.715 85.943-193.39 192-193.39 105.911 0 192 86.674 192 193.39 0 106.789-86.016 193.317-192 193.317zM512.165 295.424c-53.102 0-96.037 43.227-96.037 96.695 0 53.321 43.008 96.549 96.037 96.549 53.029 0 95.963-43.301 95.963-96.549 0-53.467-42.935-96.695-95.963-96.695z"  horiz-adv-x="1025" />

    
    <glyph glyph-name="weixin" unicode="&#58890;" d="M683.517777 379.959425C673.386119 379.959425 663.075262 390.12348 663.075262 400.509262 663.075262 410.748234 673.349672 421.059095 683.517777 421.059095 698.98609 421.059095 709.256453 410.748234 709.256453 400.509262 709.256453 390.12348 698.98609 379.959425 683.517777 379.959425M570.41522 379.959425C560.211681 379.959425 549.862347 390.12348 549.862347 400.509262 549.862347 410.748234 560.211681 421.059095 570.41522 421.059095 586.025277 421.059095 596.157945 410.748234 596.157945 400.509262 596.157945 390.12348 586.025277 379.959425 570.41522 379.959425M801.809173 354.213663C801.809173 436.41604 719.535923 503.408277 627.124947 503.408277 529.277077 503.408277 452.262529 436.384652 452.262529 354.213663 452.262529 271.792597 529.312514 205.022086 627.124947 205.022086 647.60391 205.022086 668.268151 210.144104 688.817988 215.29751L745.202714 184.361892 729.739465 235.771409C771.020364 266.781947 801.809173 307.85023 801.809173 354.213663M359.674371 518.840145C344.246554 518.840145 328.703318 529.151002 328.703318 544.547434 328.703318 560.014736 344.246554 570.218274 359.674371 570.218274 375.106236 570.218274 385.349262 560.050169 385.349262 544.547434 385.349262 529.151002 375.106236 518.840145 359.674371 518.840145M503.569788 570.218274C519.11201 570.218274 529.312514 560.014736 529.312514 544.547434 529.312514 529.151002 519.11201 518.840145 503.569788 518.840145 488.208794 518.840145 472.741492 529.151002 472.741492 544.547434 472.741492 560.050169 488.173357 570.218274 503.569788 570.218274M614.093616 514.481519C620.773805 514.481519 627.346676 513.975289 633.954981 513.252395 616.162066 596.103756 527.607534 657.64594 426.484366 657.64594 313.457744 657.64594 220.868574 580.639492 220.868574 482.787572 220.868574 426.322858 251.657384 379.959425 303.146884 343.942289L282.593 282.103455 354.485529 318.124643C380.192818 313.078556 400.813525 307.85023 426.484366 307.85023 432.950929 307.85023 439.338516 308.13878 445.654224 308.609572 441.663118 322.371898 439.302068 336.748785 439.302068 351.745292 439.338516 441.573495 516.458361 514.481519 614.093616 514.481519M511.996538 894.651452C238.349895 894.651452 16.493931 672.80104 16.493931 399.191869 16.493931 125.491101 238.345732-96.31629 511.996538-96.31629 785.654285-96.31629 1007.506085 125.491101 1007.506085 399.191869 1007.506085 672.80104 785.654285 894.651452 511.996538 894.651452M511.240469 868.11292C769.41386 868.11292 979.454028 658.115711 979.454028 399.947865 979.454028 141.731516 769.41386-68.292023 511.240469-68.292023 253.029665-68.292023 42.989498 141.731516 42.989498 399.947865 42.989498 658.115711 253.029665 868.11292 511.240469 868.11292"  horiz-adv-x="1024" />

    
    <glyph glyph-name="star-copy" unicode="&#59015;" d="M512 828.375c-244.688 0-441.563-199.688-441.563-444.375s199.688-444.375 444.375-444.375c244.688 0 444.375 199.688 444.375 444.375-2.813 244.688-202.5 444.375-447.188 444.375zM703.25 102.75l-191.25 115.313-191.25-115.313 47.813 216.563-165.938 149.063 222.188 19.688 87.188 205.313 87.188-205.313 222.188-19.688-168.75-146.25 50.625-219.375z"  horiz-adv-x="1024" />

    
    <glyph glyph-name="tubiao06" unicode="&#59012;" d="M511.998 896C229.23 896 0 695.422 0 448.002c0-141.476 74.952-267.635 192-349.735L192-128l190.079 142.561c41.489-9.498 85.03-14.562 129.919-14.562C794.77-0.001 1024 200.578 1024 448.002 1024 695.427 794.77 896 511.998 896L511.998 896zM255.999 400.001c-26.511 0-48 21.491-48 48.001 0 26.507 21.489 48 48 48 26.51 0 48-21.493 48-48C303.999 421.492 282.509 400.001 255.999 400.001L255.999 400.001zM511.998 400.002c-26.511 0-48 21.49-48 48 0 26.507 21.49 48 48 48 26.51 0 48-21.493 48-48C559.998 421.492 538.508 400.002 511.998 400.002L511.998 400.002zM768.001 400.001c-26.511 0-48 21.491-48 48.001 0 26.507 21.489 48 48 48s48-21.493 48-48C816.001 421.492 794.512 400.001 768.001 400.001L768.001 400.001zM768.001 384.002"  horiz-adv-x="1024" />

    
    <glyph glyph-name="iconfontxiangxia1copy19" unicode="&#58885;" d="M273.876092 886.5185 775.427114 393.481461 273.876092-99.555573 219.474055-46.07522 666.623038 393.481461 219.474055 833.039953 273.876092 886.5185Z"  horiz-adv-x="1024" />

    
    <glyph glyph-name="gongju" unicode="&#58923;" d="M2.198036 749.322359l-1.108241 16.882506-1.089821-17.302061 0.491187-7.79043 0-18.251689 0.024559-0.599657c0.010233-0.249687 0.25378-6.132674 0.581238-6.39464 0.007163-0.00614 0.013303-0.008186 0.020466-0.008186 0.321318 0 0.528026 6.009877 0.537236 6.271844l0.020466 0.592494 0 18.215874L2.198036 749.322359 2.198036 749.322359zM1.090819 761.771903l0.822738-12.538571-0.823761-13.1853-0.809435 12.856819L1.090819 761.771903 1.090819 761.771903zM1.54926 724.53686c-0.055259-1.357927-0.223081-4.848425-0.450255-4.680603-0.231267 0.185218-0.419556 3.669576-0.484024 5.033643L0.614981 739.134323l0.474814-7.544837 0.459464 7.354502L1.54926 724.53686 1.54926 724.53686zM1.54926 724.53686M410.635356 245.848547c-32.529881 0-58.892295-25.970488-58.892295-57.96518 0-32.080649 26.323529-57.95904 58.892295-57.95904 32.533974 0 58.82271 25.87839 58.82271 57.95904C469.458066 219.821777 443.168306 245.848547 410.635356 245.848547L410.635356 245.848547zM410.635356 245.848547M608.402581 835.52465c-247.111051 0-447.432449-200.321398-447.432449-447.433472 0-247.111051 200.321398-447.428356 447.432449-447.428356 247.113097 0 447.428356 200.316282 447.428356 447.428356C1055.830937 635.203252 855.515679 835.52465 608.402581 835.52465L608.402581 835.52465zM869.367151 324.930673l-10.55438-10.385535c-59.880809-59.193147-149.796678-63.774489-215.139895-17.597797-34.450626-37.322024-176.380126-194.745403-176.380126-194.745403-23.769356-23.543206-94.070492-49.02967-143.720286-0.038886-49.643654 48.995901-23.861454 118.442576 0 141.950989l198.605314 173.192527c-45.170782 64.558341-39.952944 152.461367 19.222807 211.166397l10.646478 10.349719c51.208289 50.576909 156.991544 51.752688 209.05941 51.582819 16.125259-0.091074 4.995781-12.414751 4.995781-12.414751s-86.835717-85.555561-98.487082-97.093339c-11.70867-11.57871-9.434883-34.860972-9.434883-34.860972s8.054443-83.70747 19.666922-95.247294c11.747555-11.486612 92.955088-20.546965 92.955088-20.546965s30.704302-0.932232 39.764656 8.054443c9.078773 9.025561 98.004081 97.315396 98.004081 97.315396s12.418844 10.737552 12.287861-5.945409C920.631722 477.335758 919.010805 374.000252 869.367151 324.930673L869.367151 324.930673zM869.367151 324.930673"  horiz-adv-x="1122" />

    
    <glyph glyph-name="yuyin" unicode="&#59204;" d="M385.939234 879.553767c-121.376298 0-220.115114-98.750898-220.115114-220.102024l0-251.548623c0-121.363209 98.738815-220.1131 220.115114-220.1131 121.36623 0 220.094976 98.749891 220.094976 220.1131L606.03421 659.451743C606.033203 780.803876 507.305463 879.553767 385.939234 879.553767zM543.155109 407.90312c0-86.689589-70.534342-157.219903-157.216882-157.219903-86.69563 0-157.222924 70.531321-157.222924 157.219903L228.715303 659.451743c0 86.681534 70.527294 157.209834 157.222924 157.209834 86.681534 0 157.216882-70.527294 157.216882-157.209834L543.155109 407.90312zM566.823628-126.639717l1.687516 0 0 0.06746C567.951324-126.617566 567.391504-126.639717 566.823628-126.639717zM763.167522 407.90312c0.053364-0.60513 0.075515-1.214287 0.075515-1.831499 0.015103 0.606136 0.015103 1.226369 0.015103 1.831499L763.167522 407.90312zM763.243037 406.071622l0-0.782339c-1.33209-196.267371-153.358552-357.12812-345.858212-373.116227l0-95.935686 145.33681 0c1.210259 0.159086 2.444683 0.227553 3.693203 0.227553 17.425918 0 31.55232-14.126402 31.55232-31.55232 0-16.718088-13.006761-30.417576-29.457021-31.48486-0.55982-0.045309-1.119641-0.06746-1.687516-0.06746L199.853343-126.639717c-0.011076-0.012082-0.011076-0.012082-0.022151 0-17.243675 0.223525-31.136482 14.274412-31.136482 31.55232 0 17.425918 14.126402 31.55232 31.564402 31.55232 1.244493 0 2.470862-0.06746 3.681121-0.227553l150.545354 0 0 95.935686C163.568729 48.028255 12.472616 206.384916 8.693829 400.45026c-0.295013 1.717722-0.450071 3.491829-0.450071 5.297149 0 17.436994 14.126402 31.563396 31.563396 31.563396 16.707012 0 30.372267-12.980582 31.461702-29.407684l0.223525 0c0-173.379177 141.054587-314.44182 314.446854-314.44182 171.56983 0 311.475577 138.123586 314.380401 309.008743-0.120825 1.078359-0.182244 2.167793-0.182244 3.276359 0 17.436994 14.126402 31.563396 31.56843 31.563396 16.707012 0 30.372267-12.980582 31.461702-29.407684C763.220886 407.297991 763.243037 406.688834 763.243037 406.071622z"  horiz-adv-x="1024" />

    
    <glyph glyph-name="qianbao" unicode="&#58956;" d="M1006.674506-21.791816c0-14.80035-2.516187-28.601644-7.581821-41.421791-5.032375-12.836777-12.232994-24.121884-21.555808-33.859158-9.322813-9.733437-20.211368-17.316537-32.651593-22.742906-12.423595-5.427648-26.035568-8.167695-40.801379-8.184325L128.209151-127.999996c-14.767091 0-28.757706 2.723418-41.965451 8.184325-13.207745 5.462186-24.872774 13.027378-34.995088 22.742906-10.123593 9.719365-18.091733 20.986563-23.906978 33.859158-5.8242 12.836777-8.73566 26.638071-8.73566 41.421791L18.605973 560.740738c0 29.585349 10.295006 54.689659 30.886296 75.314208 20.600245 20.616874 45.670016 30.92851 75.211872 30.92851l775.865801 0c29.550811 0 54.620582-10.312914 75.229781-30.92851 20.572102-20.62455 30.877342-45.730138 30.877342-75.314208l0-158.761573L742.01432 401.979165c-29.55209 0-54.620582-10.123593-75.213151-30.360545-20.590011-20.263815-30.892692-45.178803-30.892692-74.728334 0.773916-20.247185 5.047725-38.148317 12.836777-53.708512 6.218194-13.23205 16.523433-25.293631 30.892692-36.201374 14.370538-10.906463 35.16778-16.36865 62.376375-16.36865l264.661465 0 0-212.470085L1006.675786-21.791816zM848.118884 720.666384 318.795953 720.666384c41.982081 21.788622 81.629621 42.809724 118.933666 63.054351 32.660547 17.13617 64.916867 34.263385 96.776634 51.365017 31.857209 17.118261 56.738938 30.35159 74.624719 39.716617 27.207315 14.792675 51.485261 21.606976 72.850468 20.426273 21.366486-1.162793 39.44031-4.867358 54.2074-11.086831 17.128495-8.573202 31.876397-19.850633 44.317901-33.848924L848.118884 720.666384zM689.563262 296.889007c0 14.80035 5.032375 27.240575 15.147013 37.353934 10.09673 10.115918 22.519046 15.180272 37.304045 15.180272 14.78372 0 27.206036-5.064355 37.304045-15.180272 10.09673-10.113359 15.145734-22.553584 15.145734-37.353934 0-14.801629-5.049004-27.449084-15.145734-37.960275-10.099288-10.509911-22.520325-15.749516-37.304045-15.749516-14.784999 0-27.208595 5.239605-37.304045 15.749516C694.594358 269.439923 689.563262 282.087378 689.563262 296.889007L689.563262 296.889007zM689.563262 296.889007"  horiz-adv-x="1024" />

    
    <glyph glyph-name="close" unicode="&#58940;" d="M574.85863 384l298.588469 298.588469c17.359366 17.35732 17.359366 45.500287 0 62.859653-17.35732 17.359366-45.500287 17.359366-62.859653 0L511.998977 446.860676 213.410508 745.449145c-17.35732 17.359366-45.500287 17.359366-62.859653 0-17.35732-17.359366-17.35732-45.502333 0-62.859653l298.588469-298.588469L150.549831 85.411531c-17.35732-17.359366-17.35732-45.502333 0-62.859653 17.359366-17.359366 45.502333-17.359366 62.859653 0l298.588469 298.588469 298.588469-298.588469c17.359366-17.359366 45.502333-17.359366 62.859653 0 17.359366 17.35732 17.359366 45.500287 0 62.859653L574.85863 384z"  horiz-adv-x="1024" />

    
    <glyph glyph-name="weibo" unicode="&#59137;" d="M645.856 389.856c-21.632 4.224-11.136 15.84-11.136 15.84s21.184 34.912-4.192 60.288c-31.424 31.424-107.808-4-107.808-4-29.184-9.056-21.44 4.128-17.312 26.56 0 26.432-9.056 71.2-86.752 44.768-77.632-26.56-144.288-119.68-144.288-119.68-46.368-61.856-40.224-109.664-40.224-109.664 11.584-105.536 123.744-134.528 210.944-141.376 91.776-7.2 215.616 31.648 253.184 111.392 37.536 79.936-30.72 111.552-52.416 115.872M451.872 192.352c-91.104-4.256-164.736 41.408-164.736 102.24 0 60.864 73.632 109.664 164.736 113.856 91.168 4.224 164.96-33.344 164.96-94.080-0.032-60.8-73.792-117.856-164.96-122.016M433.696 368.352c-91.648-10.72-81.056-96.544-81.056-96.544s-0.928-27.168 24.576-41.024c53.632-29.024 108.832-11.456 136.736 24.576 27.872 36.032 11.488 123.648-80.256 112.992M410.592 247.904c-17.12-1.984-30.912 7.872-30.912 22.176 0 14.24 12.256 29.184 29.376 30.944 19.648 1.856 32.448-9.44 32.448-23.744-0.032-14.272-13.888-27.456-30.912-29.376M464.608 293.92c-5.792-4.32-12.928-3.744-15.968 1.472-3.2 5.056-1.984 13.184 3.872 17.44 6.784 5.056 13.856 3.616 16.896-1.472 3.040-5.184 0.832-12.96-4.8-17.44M690.464 427.040c7.392 0 13.664 5.472 14.72 12.576 0.128 0.544 0.192 0.992 0.192 1.6 11.2 100.608-82.464 83.296-82.464 83.296-8.32 0-14.976-6.72-14.976-15.104 0-8.256 6.656-14.976 14.976-14.976 67.264 14.848 52.416-52.416 52.416-52.416 0.032-8.32 6.816-14.976 15.136-14.976M679.552 602.656c-32.352 7.584-65.664 1.024-75.008-0.736-0.704-0.064-1.408-0.736-2.048-0.864-0.32-0.064-0.544-0.416-0.544-0.416-9.184-2.592-15.936-11.104-15.936-21.184 0-12 9.728-21.856 21.856-21.856 0 0 11.776 1.568 19.776 4.704 7.904 3.2 74.976 2.4 108.288-53.536 18.176-40.832 8-68.128 6.72-72.544 0 0-4.32-10.592-4.32-21.056 0-12.064 9.728-19.648 21.76-19.648 10.080 0 18.528 1.376 20.992 18.4h0.128c35.776 119.232-43.744 175.232-101.664 188.736M512 896c-282.784 0-512-229.248-512-512 0-282.784 229.216-512 512-512 282.752 0 512 229.216 512 512 0 282.752-229.248 512-512 512M512-98.368c-266.4 0-482.368 215.968-482.368 482.368s215.968 482.336 482.368 482.336c266.4 0 482.368-215.968 482.368-482.336 0-266.4-215.968-482.368-482.368-482.368z"  horiz-adv-x="1024" />

    
    <glyph glyph-name="xinxi" unicode="&#58939;" d="M2028.902894 826.855305 1133.149839 826.855305c-58.937621 0-106.680386-47.742765-106.680386-106.680386l0-673.996141c0-58.937621 47.742765-106.515756 106.680386-106.515756l895.753055 0c58.937621 0 106.680386 47.742765 106.680386 106.515756L2135.58328 720.17492C2135.41865 779.11254 2087.840514 826.855305 2028.902894 826.855305L2028.902894 826.855305zM2012.769132 752.936334 1591.809646 307.611576 1151.917685 752.936334 2012.769132 752.936334 2012.769132 752.936334zM2014.909325 13.581994 1146.978778 13.581994c-25.682315 0-46.590354 20.908039-46.590354 46.590354L1100.388424 699.925402 1593.126688 201.26045l468.537621 495.701608 0-636.789711C2061.499678 34.490032 2040.75627 13.581994 2014.909325 13.581994L2014.909325 13.581994zM2014.909325 13.581994"  horiz-adv-x="3161" />

    
    <glyph glyph-name="integral" unicode="&#58896;" d="M509.092 395.076c258.849 0 454.035 83.602 454.035 194.469 0 110.855-195.186 194.455-454.036 194.455-258.848 0-454.048-83.602-454.048-194.457 0-110.868 195.201-194.468 454.049-194.468zM509.092 734.928c238.65 0 404.963-76.617 404.963-145.383 0-68.768-166.313-145.396-404.963-145.396-238.663 0-404.977 76.628-404.977 145.396 0.001 68.766 166.315 145.383 404.977 145.383zM509.083 189.081c258.143 0 452.807 83.079 452.807 193.229 0 29.087-14.057 56.157-38.8 80.437-0.159 0.164-0.285 0.343-0.448 0.502-0.185 0.18-0.306 0.371-0.489 0.548l-0.123-0.135c-3.98 3.648-9.183 6.003-15.007 6.003-12.359 0-22.375-10.015-22.375-22.373 0-6.542 2.915-12.292 7.389-16.385l-0.089-0.097c14.934-15.014 23.351-33.354 23.351-48.5 0-69.361-166.817-146.64-406.215-146.64-239.387 0-406.205 77.278-406.205 146.64 0 17.279 4.858 32.067 23.9 48.895 0.229 0.218 0.46 0.409 0.681 0.637 0.147 0.126 0.257 0.25 0.406 0.379l-0.091 0.087c3.658 3.982 6.020 9.195 6.020 15.029 0 12.358-10.017 22.373-22.375 22.373-6.178 0-11.77-2.505-15.815-6.551l-0.132 0.129c-25.061-24.409-39.18-51.687-39.18-80.977-0.001-110.15 194.661-193.229 452.791-193.229zM922.87 258.17c-0.18 0.177-0.302 0.368-0.485 0.543l-0.122-0.134c-3.98 3.648-9.183 6.005-15.009 6.005-12.355 0-22.373-10.016-22.373-22.374 0-6.541 2.914-12.293 7.389-16.384l-0.090-0.098c14.935-15.015 23.351-33.355 23.351-48.499 0-69.364-166.815-146.64-406.214-146.64-239.385 0-406.204 77.277-406.204 146.64 0 17.279 4.858 32.067 23.898 48.895 0.229 0.217 0.461 0.409 0.681 0.637 0.147 0.127 0.258 0.25 0.406 0.38l-0.091 0.086c3.658 3.983 6.020 9.196 6.020 15.029 0 12.359-10.017 22.374-22.373 22.374-6.179 0-11.771-2.505-15.817-6.551l-0.131 0.127c-25.063-24.407-39.179-51.689-39.179-80.977 0-110.151 194.661-193.229 452.791-193.229 258.143 0 452.805 83.079 452.805 193.229 0 29.084-14.053 56.156-38.794 80.432-0.164 0.17-0.292 0.348-0.458 0.509z"  horiz-adv-x="1024" />

    
    <glyph glyph-name="tiaozhuan" unicode="&#59046;" d="M517.36064 880.18944c-277.02272 0-501.54496-224.53248-501.54496-501.55008C15.81056 101.67808 240.3328-122.88 517.36064-122.88 794.32704-122.88 1018.88 101.67808 1018.88 378.63936 1018.88 655.65696 794.07616 880.18944 517.36064 880.18944zM675.55328 340.43904l-199.66464-199.71072c-21.15584-21.18144-55.28576-21.18144-76.43136 0-21.16096 21.19168-21.16096 55.22944 0 76.41088l161.49504 161.50016L399.45728 540.14464c-21.16096 21.17632-21.16096 55.27552 0 76.43648 21.1456 21.1456 55.27552 21.1456 76.43136 0l199.66464-199.7056C696.74496 395.7248 696.74496 361.37472 675.55328 340.43904z"  horiz-adv-x="1024" />

    
    <glyph glyph-name="shanchu" unicode="&#58909;" d="M608 128c-17.696 0-32 14.304-32 32L576 512c0 17.696 14.304 32 32 32s32-14.304 32-32l0-352C640 142.304 625.696 128 608 128zM416 128c-17.696 0-32 14.304-32 32L384 512c0 17.696 14.304 32 32 32s32-14.304 32-32l0-352C448 142.304 433.696 128 416 128zM928 672l-160 0L768 736c0 52.928-42.72 96-95.264 96L352 832C299.072 832 256 788.928 256 736l0-64L96 672C78.304 672 64 657.696 64 640s14.304-32 32-32l832 0c17.696 0 32 14.304 32 32S945.696 672 928 672zM320 736c0 17.632 14.368 32 32 32l320.736 0C690.272 768 704 753.952 704 736l0-64L320 672 320 736zM736.128-64 288.064-64c-52.928 0-96 43.072-96 96L192.064 512.48c0 17.664 14.336 32 32 32s32-14.336 32-32L256.064 32c0-17.664 14.368-32 32-32l448.064 0c17.664 0 32 14.336 32 32L768.128 511.168c0 17.664 14.304 32 32 32s32-14.336 32-32L832.128 32C832.128-20.928 789.056-64 736.128-64z"  horiz-adv-x="1024" />

    
    <glyph glyph-name="duihao" unicode="&#58895;" d="M512.896416 830.728414c-247.233847 0-447.656553-200.422705-447.656553-447.656553s200.422705-447.656553 447.656553-447.656553 447.656553 200.422705 447.656553 447.656553S760.130264 830.728414 512.896416 830.728414zM784.575002 111.392252c-35.30611-35.30611-76.401064-63.017242-122.145921-82.365916-47.326888-20.017916-97.636714-30.167067-149.532665-30.167067-51.895951 0-102.2068 10.150174-149.532665 30.167067-45.743834 19.34765-86.839811 47.059805-122.145921 82.365916-35.30611 35.30611-63.017242 76.402087-82.365916 122.145921-20.017916 47.326888-30.167067 97.636714-30.167067 149.532665 0 51.895951 10.150174 102.2068 30.167067 149.532665 19.34765 45.743834 47.059805 86.839811 82.365916 122.145921 35.30611 35.30611 76.402087 63.017242 122.145921 82.365916 47.326888 20.017916 97.636714 30.167067 149.532665 30.167067 51.895951 0 102.2068-10.149151 149.532665-30.167067 45.743834-19.348674 86.839811-47.059805 122.145921-82.365916 35.30611-35.30611 63.017242-76.401064 82.365916-122.145921 20.017916-47.326888 30.167067-97.636714 30.167067-149.532665 0-51.895951-10.149151-102.2068-30.167067-149.532665C847.592244 187.794339 819.881113 146.698363 784.575002 111.392252zM762.333442 570.589652c-13.429871 11.248182-33.438577 9.476839-44.687782-3.954055L445.776739 241.978403 278.398638 399.98302c-12.740162 12.026918-32.816406 11.44875-44.843324-1.291412-12.025894-12.740162-11.44875-32.81743 1.291412-44.844348l176.977737-167.065993c9.534144-8.999978 22.186302-14.024411 35.101449-14.024411 0.966001 0 1.935072 0.027629 2.902096 0.084934 13.905708 0.814552 27.069519 7.479345 36.115546 18.282389l280.344966 334.778716C777.535679 539.334811 775.766382 559.342494 762.333442 570.589652z"  horiz-adv-x="1024" />

    
    <glyph glyph-name="shangjiaquan" unicode="&#59038;" d="M622.47041 307.024978l16.738714-17.994547-88.023327-81.880207-16.738714 17.994547 88.023327 81.880207ZM731.266355 288.900198l-180.170977-163.807293-16.532275 18.183782 180.170977 163.807293 16.532275-18.183782ZM641.134326 125.084692l-16.532275 18.183782 90.161254 81.972531 16.532275-18.183782-90.161254-81.972531ZM300.2368 153.8048l-2.2528 59.5968c11.0592 5.12 18.8416 16.1792 18.8416 29.2864 0 17.8176-14.336 32.1536-32.1536 32.1536s-32.1536-14.336-32.1536-32.1536c0-13.7216 8.6016-25.3952 20.6848-29.9008l2.2528-59.5968c-11.264-4.9152-19.0464-16.1792-19.0464-29.2864 0-17.8176 14.336-32.1536 32.1536-32.1536s32.1536 14.336 32.1536 32.1536C320.9216 137.6256 312.32 149.2992 300.2368 153.8048zM983.04-25.6l-75.776 0L907.264 362.9056c60.2112 9.4208 106.496 64.3072 106.496 130.6624 0 2.048 0 4.096-0.2048 6.144L4.3008 499.712c0-2.048-0.2048-4.096-0.2048-6.144 0-62.464 41.1648-114.8928 96.256-128.6144L100.352-25.6 34.816-25.6c-11.264 0-20.48-9.216-20.48-20.48 0-11.264 9.216-20.48 20.48-20.48l948.224 0c11.264 0 20.48 9.216 20.48 20.48C1003.52-34.816 994.304-25.6 983.04-25.6zM517.9392 470.8352c10.24-62.0544 61.44-109.3632 123.0848-109.3632 61.44 0 114.0736 46.8992 124.928 108.544 9.216-54.0672 49.3568-96.6656 100.352-106.496l0-389.12L385.024-25.6 385.024 361.472C446.6688 361.472 506.0608 408.7808 517.9392 470.8352zM141.312 362.0864c56.1152 5.7344 101.1712 50.7904 110.7968 108.7488 10.24-53.8624 56.32-96.4608 108.3392-106.9056L360.448-25.6 141.312-25.6 141.312 362.0864zM153.6 801.792l706.56 0c11.264 0 20.48 9.216 20.48 20.48 0 11.264-9.216 20.48-20.48 20.48L153.6 842.752c-11.264 0-20.48-9.216-20.48-20.48C133.12 811.008 142.336 801.792 153.6 801.792zM890.88 760.2176 129.4336 760.2176 6.5536 533.504 1013.76 533.504 890.88 760.2176zM268.4928 704.512l-79.872-130.4576c-4.096-6.7584-12.9024-8.8064-19.6608-4.7104s-8.8064 12.9024-4.7104 19.6608l79.872 130.4576c4.096 6.7584 12.9024 8.8064 19.6608 4.7104S272.5888 711.2704 268.4928 704.512zM399.5648 704.512l-79.872-130.4576c-4.096-6.7584-12.9024-8.8064-19.6608-4.7104s-8.8064 12.9024-4.7104 19.6608l79.872 130.4576c4.096 6.7584 12.9024 8.8064 19.6608 4.7104S403.6608 711.2704 399.5648 704.512zM523.6736 588.8c0-7.7824-6.5536-14.336-14.336-14.336-7.9872 0-14.336 6.5536-14.336 14.336L495.0016 700.8256c0 7.7824 6.3488 14.336 14.336 14.336 7.7824 0 14.336-6.5536 14.336-14.336L523.6736 588.8zM714.3424 569.344c-6.7584-4.096-15.5648-2.048-19.6608 4.7104l-79.872 130.4576c-4.096 6.7584-2.048 15.5648 4.7104 19.6608s15.5648 2.048 19.6608-4.7104l79.872-130.4576C723.1488 582.4512 721.1008 573.44 714.3424 569.344zM845.4144 569.344c-6.7584-4.096-15.5648-2.048-19.6608 4.7104l-79.872 130.4576c-4.096 6.7584-2.048 15.5648 4.7104 19.6608s15.5648 2.048 19.6608-4.7104l79.872-130.4576C854.2208 582.4512 852.1728 573.44 845.4144 569.344z"  horiz-adv-x="1024" />

    
    <glyph glyph-name="fangdajing" unicode="&#58891;" d="M947.509543-2.852403 726.787249 217.869891c55.154992 64.569202 88.411712 148.273808 88.411712 239.653043 0 203.735785-165.77196 369.507745-369.507745 369.507745s-369.507745-165.77196-369.507745-369.507745 165.77196-369.610073 369.507745-369.610073c91.379235 0 175.083841 33.359049 239.653043 88.411712l220.722294-220.722294c5.730389-5.730389 13.20036-8.595583 20.772659-8.595583 7.469971 0 15.04227 2.865194 20.772659 8.595583C958.970321-32.834616 958.970321-14.313181 947.509543-2.852403zM134.817628 457.522934c0 171.40002 139.473569 310.873588 310.873588 310.873588S756.564805 628.922954 756.564805 457.522934c0-171.40002-139.473569-310.873588-310.873588-310.873588S134.817628 286.122914 134.817628 457.522934z"  horiz-adv-x="1024" />

    
    <glyph glyph-name="huodong" unicode="&#59032;" d="M706.052 818.254v0c8.598 0 24.269-1.339 34.396-10.701 2.293-2.1 9.171-8.598 9.171-24.461 0-17.962-9.746-46.243-37.071-71.659-33.441-31.149-88.666-54.653-128.222-54.653-11.468 0-16.816 2.1-17.771 2.1h-0.192c-7.263 14.906 8.79 79.874 54.843 122.873 24.65 22.739 56.373 36.499 84.844 36.499v0zM706.052 894.117c-45.861 0-96.309-19.491-136.441-56.945-69.174-64.397-109.302-183.065-55.609-233.324 17.199-16.053 42.23-23.122 70.321-23.122 59.43 0 133.19 31.338 180.007 74.91 68.981 64.397 81.595 157.267 27.709 207.332-22.549 21.020-53.123 31.338-85.991 31.149v0 0M317.948 818.254c28.473 0 60.192-13.759 84.654-36.689 46.626-43.378 62.487-108.922 55.989-121.915 0 0-4.969-3.057-18.916-3.057-39.747 0-94.781 23.503-128.222 54.653-27.326 25.414-37.071 53.696-37.071 71.659 0 16.053 6.879 22.357 9.171 24.461 10.127 9.553 25.989 10.892 34.396 10.892v0zM317.948 894.117c-33.058 0-63.442-10.127-85.991-31.149-53.696-50.064-41.275-142.937 27.901-207.332 46.817-43.761 120.58-74.91 180.007-74.91 28.091 0 53.123 7.069 70.321 23.122 53.696 50.064 13.377 168.733-55.609 233.324-40.321 37.452-90.767 56.945-136.629 56.945v0 0M958.484 283.2v260.457c0 40.893-33.441 74.335-74.335 74.335h-334.982v-334.791h409.319M549.167 208.673v-334.982h334.982c40.893 0 74.335 33.441 74.335 74.526v260.457h-409.319M474.833 283.2v334.791h-334.982c-40.893 0-74.335-33.441-74.335-74.335v-260.457h409.319M65.516 208.673v-260.457c0-40.893 33.441-74.526 74.335-74.526h334.982v334.982h-409.319z"  horiz-adv-x="1024" />

    
    <glyph glyph-name="shoucang" unicode="&#58893;" d="M713.129 578.022l-154.906 214.797c-5.78 8.19-14.65 12.685-23.758 13.034-0.119 0.007-0.232 0.011-0.35 0.011-0.293 0.009-0.58 0.009-0.866 0.009-0.271 0-0.541 0-0.811-0.007-0.135-0.005-0.264-0.008-0.393-0.016-9.135-0.354-18.029-4.86-23.803-13.061l-155.661-215.642c-10.037-14.227-6.967-34.082 6.799-44.411 13.81-10.326 33.080-7.178 43.111 7.051l130.849 181.323 130.045-180.367c9.991-14.148 29.215-17.297 42.942-7.012 13.736 10.285 16.756 30.1 6.803 44.29v0zM805.829-32.067c0.218 0.157 0.441 0.322 0.653 0.484 0.107 0.079 0.209 0.165 0.317 0.248 7.18 5.656 11.727 14.52 11.574 24.552l-0.817 265.946c-0.247 17.409-14.403 31.677-31.609 31.936-17.248 0.235-30.984-13.637-30.736-31.045l0.721-223.595-211.228 69.476c-16.402 5.577-33.801-3.177-38.864-19.567s4.146-34.195 20.531-39.822l251.585-82.731c9.485-3.227 19.302-1.652 26.879 3.419 0.1 0.067 0.198 0.129 0.298 0.198 0.229 0.162 0.467 0.331 0.697 0.5v0zM974.389 484.735c-0.029 0.108-0.055 0.219-0.088 0.327-0.086 0.281-0.171 0.558-0.261 0.833-0.084 0.26-0.169 0.514-0.26 0.766-0.045 0.124-0.091 0.247-0.137 0.372-3.157 8.577-10.192 15.648-19.78 18.598l-253.195 81.402c-16.638 5.148-34.572-3.903-40.144-20.187-5.548-16.328 3.396-33.684 20.035-38.826l212.885-68.413-131.35-179.409c-10.374-13.872-7.423-33.13 6.595-43.010 14.030-9.879 33.806-6.624 44.227 7.223l156.426 213.693c5.998 8.032 7.532 17.856 5.047 26.629v0zM559.816 86.369c-5.058 16.39-22.462 25.145-38.858 19.567l-211.231-69.479 0.721 223.595c0.253 17.41-13.49 31.282-30.732 31.045-17.206-0.259-31.362-14.526-31.609-31.936l-0.823-265.946c-0.145-10.036 4.399-18.907 11.586-24.563 0.102-0.079 0.198-0.152 0.298-0.231 0.219-0.169 0.441-0.331 0.665-0.496 0.232-0.169 0.463-0.331 0.694-0.49 0.1-0.073 0.206-0.141 0.309-0.209 7.575-5.064 17.387-6.64 26.867-3.413l251.582 82.725c16.39 5.635 25.6 23.439 20.53 39.832v0zM405.131 566.847c-5.565 16.283-23.505 25.334-40.144 20.187l-253.195-81.402c-9.592-2.958-16.621-10.021-19.775-18.606-0.046-0.119-0.091-0.243-0.136-0.36-0.091-0.258-0.18-0.517-0.265-0.776-0.083-0.27-0.169-0.547-0.253-0.817-0.034-0.119-0.066-0.235-0.1-0.354-2.472-8.764-0.94-18.589 5.058-26.608l156.427-213.699c10.42-13.847 30.197-17.094 44.22-7.223 14.026 9.88 16.972 29.138 6.602 43.011l-131.355 179.409 212.886 68.413c16.635 5.141 25.584 22.497 20.032 38.826v0zM405.131 566.847v0z"  horiz-adv-x="1075" />

    
    <glyph glyph-name="xiaoxi" unicode="&#58892;" d="M830.33896 707.605602 193.661009 707.605602c-64.464479 0-117.202504-52.738025-117.202504-117.202504l0-413.375429c0-64.459613 52.738025-117.197639 117.202504-117.197639l636.677951 0c64.464479 0 117.202504 52.738025 117.202504 117.197639l0 413.375429C947.541463 654.867577 894.803438 707.605602 830.33896 707.605602L830.33896 707.605602zM193.661009 646.804651l636.677951 0c14.937514 0 29.062533-5.906406 39.781881-16.619672 4.008961-4.010177 7.345302-8.500797 9.948207-13.327119-1.358619-0.665322-2.669802-1.440112-3.928684-2.319505L519.547193 364.843103l-7.559372-5.292169-7.559372 5.292169L147.83163 614.534706c-1.250368 0.878176-2.556686 1.648101-3.905574 2.313423 2.602905 4.832403 5.942895 9.321807 9.953072 13.336849C164.598476 640.898246 178.723494 646.804651 193.661009 646.804651L193.661009 646.804651zM870.120841 137.250653c-10.719348-10.718132-24.844367-16.619672-39.781881-16.619672L193.661009 120.63098c-14.937514 0-29.062533 5.901541-39.781881 16.619672-10.713267 10.719348-16.619672 24.844367-16.619672 39.781881L137.259455 553.034377 495.083532 302.488924l0.222585-0.152039 0.114333-0.076628 0.109468-0.075411c0.332053-0.233532 0.675053-0.451251 1.059407-0.698162 4.299659-2.728185 9.354647-4.253439 14.595731-4.390882l1.492413 0 0.080277 0c5.193648 0.133794 10.23404 1.639587 14.600596 4.376287l0.03284 0.018245c0.380705 0.243262 0.717623 0.465847 1.069137 0.707893l0.137443 0.096089 0.138659 0.094872 0.170284 0.109468L886.740513 553.053838l0-376.02617C886.740513 162.09502 880.834107 147.970001 870.120841 137.250653L870.120841 137.250653zM870.120841 137.250653"  horiz-adv-x="1024" />

    
    <glyph glyph-name="shoucang1" unicode="&#58935;" d="M967.845161 341.058065c42.941935 46.245161 59.458065 112.309677 39.63871 175.070968-19.819355 62.76129-69.367742 109.006452-128.825806 115.612903l-122.219355 19.819355c-16.516129 3.303226-29.729032 13.212903-36.335484 29.729032l-52.851613 118.916129C637.522581 859.664516 581.367742 896 518.606452 896c-62.76129 0-118.916129-36.335484-145.341935-95.793548L320.412903 681.290323C313.806452 668.077419 300.593548 654.864516 284.077419 654.864516L161.858065 635.045161C102.4 625.135484 52.851613 582.193548 33.032258 516.129032c-19.819355-62.76129-3.303226-132.129032 39.63871-175.070968l89.187097-92.490323c9.909677-13.212903 16.516129-29.729032 13.212903-46.245161l-19.819355-128.825806c-9.909677-66.064516 13.212903-128.825806 62.76129-168.464516 49.548387-39.63871 115.612903-42.941935 168.464516-13.212903l95.793548 56.154839c19.819355 13.212903 46.245161 13.212903 66.064516 0l95.793548-56.154839c23.122581-13.212903 49.548387-19.819355 75.974194-19.819355 33.032258 0 66.064516 9.909677 95.793548 33.032258 49.548387 39.63871 75.974194 102.4 62.76129 168.464516l-19.819355 115.612903c-3.303226 26.425806 3.303226 49.548387 19.819355 69.367742L967.845161 341.058065zM822.503226 281.6c-13.212903-13.212903-19.819355-36.335484-16.516129-56.154839l16.516129-95.793548c9.909677-52.851613 0-128.825806-42.941935-161.858065-23.122581-16.516129-49.548387-26.425806-79.277419-26.425806-19.819355 0-52.851613 29.729032-72.670968 39.63871l-79.277419 46.245161c-16.516129 9.909677-39.63871 9.909677-56.154839 0l-79.277419-46.245161C366.658065-45.419355 303.896774-61.935484 260.954839-28.903226c-42.941935 33.032258-52.851613 105.703226-42.941935 158.554839L234.529032 235.354839c3.303226 13.212903-3.303226 26.425806-9.909677 36.335484l-72.670968 75.974194c-36.335484 39.63871-66.064516 92.490323-49.548387 145.341935 16.516129 52.851613 72.670968 89.187097 125.522581 95.793548l99.096774 16.516129c13.212903 3.303226 23.122581 9.909677 29.729032 23.122581l46.245161 95.793548c23.122581 49.548387 69.367742 112.309677 118.916129 112.309677 49.548387 0 95.793548-62.76129 118.916129-112.309677l46.245161-95.793548c6.606452-13.212903 16.516129-19.819355 29.729032-23.122581l99.096774-16.516129c49.548387-6.606452 122.219355-46.245161 135.432258-95.793548 16.516129-52.851613-26.425806-109.006452-62.76129-145.341935L822.503226 281.6z"  horiz-adv-x="1024" />

    
    <glyph glyph-name="huangguan" unicode="&#58886;" d="M140.167 556.535c0-20.907-16.943-37.85-37.85-37.85-20.908 0-37.851 16.944-37.851 37.85 0 20.909 16.944 37.851 37.851 37.851 20.907 0.001 37.85-16.942 37.85-37.851zM551.156 673.748c0-20.908-16.952-37.85-37.849-37.85-20.91 0-37.853 16.943-37.853 37.85 0 20.907 16.943 37.851 37.853 37.851 20.897 0.001 37.849-16.944 37.849-37.851zM958.409 556.535c0-20.907-16.969-37.85-37.869-37.85-20.899 0-37.835 16.944-37.835 37.85 0 20.909 16.936 37.851 37.835 37.851 20.9 0.001 37.869-16.942 37.869-37.851zM140.167 508.34l52.664-336.8h623.144l66.73 336.8-186.907-119.675-182.491 220.56-185.466-210.676zM818.931 90.691c0-14.344-11.632-25.977-25.976-25.977h-574.147c-14.345 0-25.976 11.633-25.976 25.977v0c0 14.345 11.632 25.976 25.976 25.976h574.148c14.343-0 25.975-11.631 25.975-25.976v0z"  horiz-adv-x="1024" />

    
    <glyph glyph-name="kefu" unicode="&#58964;" d="M703.044776 345.791045m-397.373134 0a397.373134 397.373134 0 1 1 794.746268 0 397.373134 397.373134 0 1 1-794.746268 0ZM1253.253731 468.059701h-12.226865C1182.949254 712.597015 965.922388 896 703.044776 896S223.140299 712.597015 165.062687 468.059701H152.835821c-85.58806 0-152.835821-67.247761-152.835821-152.83582s67.247761-152.835821 152.835821-152.835821h61.134328v220.083582C235.367164 636.179104 446.280597 834.865672 703.044776 834.865672c268.991045 0 489.074627-220.083582 489.074627-489.074627 0-122.268657-45.850746-238.423881-125.325373-327.068657-9.170149 3.056716-15.283582 6.113433-24.453731 6.113433-12.226866 0-21.397015-3.056716-27.510448-12.226866l-42.79403-42.79403c-18.340299-18.340299-12.226866-51.964179 9.170149-76.41791 15.283582-15.283582 30.567164-21.397015 45.850746-21.397015 12.226866 0 21.397015 3.056716 27.510448 12.226866l42.79403 42.79403c12.226866 12.226866 12.226866 27.510448 9.170149 45.850746 51.964179 55.020896 88.644776 119.21194 116.155224 192.573134 9.170149-3.056716 21.397015-3.056716 30.567164-3.056716 85.58806 0 152.835821 67.247761 152.835821 152.835821s-67.247761 152.835821-152.835821 152.83582z"  horiz-adv-x="1410" />

    
    <glyph glyph-name="shiliangzhinengduixiang42" unicode="&#58998;" d="M995.072 384.398222c-15.36 0-27.477333-12.231111-28.416-27.591111-14.734222-245.475556-224.967111-439.125333-476.672-426.979555C261.546667-59.164444 72.732444 126.577778 58.225778 354.844444c-16.184889 254.890667 178.801778 468.963556 426.581333 483.84 15.331556 0.910222 27.591111 13.027556 27.591111 28.416 0 16.042667-13.283556 29.383111-29.297778 28.472889C202.410667 879.644444-18.545778 636.586667 1.678222 347.733333c15.985778-228.181333 224.796444-446.663111 452.124445-472.064 298.353778-33.308444 553.443556 191.658667 569.770666 479.402667 0.910222 16.042667-12.430222 29.326222-28.501333 29.326222zM479.943111 254.407111c2.218667-15.729778 17.208889-26.624 32.881778-24.035555 15.331556 2.531556 25.571556 16.981333 23.409778 32.369777-25.088 178.801778-0.455111 307.911111 73.301333 383.914667 87.096889 89.742222 223.630222 87.324444 303.246222 79.217778l-59.050666-59.079111a28.444444 28.444444 0 0 1 40.220444-40.220445l120.661333 120.689778L893.952 867.953778A28.416 28.416 0 1 1 853.731556 827.733333l43.463111-43.491555c-89.543111 6.513778-232.419556 1.052444-328.504889-97.962667-86.584889-89.287111-116.394667-234.467556-88.746667-431.872z"  horiz-adv-x="1024" />

    
    <glyph glyph-name="dianpu" unicode="&#58937;" d="M384-5.312V128s0 64 64 64h128c64 0 64-64 64-64v-160h192V293.568c-13.952-3.328-28.352-5.056-43.2-5.056-51.456 0-100.672 21.568-137.92 59.2A194.752 194.752 0 0 0 512.256 288c-51.584 0-100.928 21.696-138.304 59.456C336.64 309.632 287.232 288 235.712 288A186.24 186.24 0 0 0 192 293.184V-32h192zM576-32V128H448v-160h128zM128 321.92c-57.6 39.552-96 109.824-96 189.76 0 12.672 1.28 19.456 3.712 25.984L144.576 824.512C149.76 846.272 171.648 864 196.608 864h630.016c25.024 0 46.848-17.728 53.184-43.136l108.416-283.072C990.72 531.2 992 524.352 992 517.44c0-83.648-38.4-155.136-96-195.072V-32s0-64-64-64H192c-64 0-64 64-64 64V321.92z m245.952 134.144l26.688-40.384C427.008 375.808 468.736 352 512.256 352c43.776 0 85.568 23.936 111.808 64l26.624 40.704 26.816-40.64c26.24-39.808 67.904-63.552 111.296-63.552 76.736 0 139.2 71.36 139.2 159.104L819.52 800h-616L95.552 514.944C96 423.616 158.656 352 235.712 352c43.52 0 85.248 23.808 111.552 63.68l26.688 40.384z"  horiz-adv-x="1024" />

    
    <glyph glyph-name="hunshasheying1" unicode="&#59301;" d="M751.646032 813.469332c-21.392216-5.829775-36.707017-23.228027-41.848107-44.324508-15.140839 15.561417-37.193087 22.777773-58.589396 16.947997-32.19219-8.777921-50.671053-43.768853-41.292452-78.17036 5.382591-19.638269 18.684548-34.817993 35.075866-42.606377l110.370737-62.989613 63.032592 110.246916c10.17371 15.040555 13.891382 34.870182 8.543583 54.507428-9.378601 34.399461-43.098587 55.165414-75.293846 46.38954l0.001023-0.001023zM967.979102 613.895971c-15.734356 4.684696-32.161491-0.278339-43.656289-11.535731-3.439332 15.699564-14.481829 28.867468-30.215162 33.552163-23.684422 7.060813-49.037856-7.737218-56.57553-33.048697-4.305049-14.450107-1.912559-29.196972 5.382591-40.506552l44.767599-82.73226 82.794682 44.722574c12.296047 5.482875 22.400173 16.498766 26.706245 30.948873 7.569396 25.309432-5.522784 51.53984-29.207206 58.59963h0.00307zM855.592452 439.399751c-8.024767 44.773739-45.463448 38.477336-90.056062 38.460963l-133.363403 1.438769c-15.035438 27.045983-14.898315 70.536496-39.067784 84.277452-16.84362 9.576099-230.29199 8.117888-244.740051 1.059122-31.674397-15.492856-20.490683-62.801325-41.643445-84.953858l0.007163-0.003069c-4.862751-4.128017 0.314155-3.278673-11.843746-3.555989-5.209652-0.12075-6.389524 0.692778-10.835789 1.561565l-2.64013 31.226188c-3.299139 21.910009-98.702999 8.69094-127.214357 6.748705l-1.946328-37.785582c-88.801489-0.206708-70.083172-36.603663-70.083172-187.620121 0-86.202291-1.701758-174.121689 0-260.115226 1.006933-51.454906 19.135826-60.162218 70.050426-60.198034l393.415184 0.053212c82.065064 0 180.281993-4.9088 260.367983 0.311085 50.948369 3.314489 51.3976 30.9325 51.331085 78.554101-0.107447 54.194296 3.053546 363.840612-1.737574 390.540717z m-356.151489-372.279818c-193.337333-38.164205-256.649288 253.649977-58.239426 295.300586 90.227977 18.928095 162.325016-46.02115 176.043459-117.706819 17.538445-91.686189-45.357024-163.29818-117.804033-177.593767z"  horiz-adv-x="1024" />

    
    <glyph glyph-name="qiandao" unicode="&#58899;" d="M879.473806 781.426573l-72.552599 0L806.921207 814.161838c0 45.198194-36.639968 81.838162-81.838162 81.838162l-1.022977 0c-45.198194 0-81.838162-36.639968-81.838162-81.838162l0-32.735265L378.501499 781.426573 378.501499 814.161838c0 45.198194-36.639968 81.838162-81.838162 81.838162l-1.022977 0c-45.198194 0-81.838162-36.639968-81.838162-81.838162l0-32.735265-70.297958 0C64.249095 781.426573 0 717.177479 0 637.922334l0-476.63773c0-79.255145 64.249095-143.503217 143.50424-143.503217L879.473806 17.781387c79.255145 0 143.503217 64.249095 143.503217 143.503217L1022.977023 637.922334C1022.977023 717.177479 958.727928 781.426573 879.473806 781.426573zM692.34778 814.673327c0 18.361415 14.885339 33.246753 33.246753 33.246753s33.246753-14.885339 33.246753-33.246753l0-115.596404c0-18.361415-14.885339-33.246753-33.246753-33.246753s-33.246753 14.885339-33.246753 33.246753L692.34778 814.673327zM263.928072 814.673327c0 18.361415 14.885339 33.246753 33.246753 33.246753S330.421578 833.034741 330.421578 814.673327l0-115.596404c0-18.361415-14.885339-33.246753-33.246753-33.246753S263.928072 680.715508 263.928072 699.076923L263.928072 814.673327zM958.400575 189.98627c0-56.610525-45.891772-102.502298-102.502298-102.502298L168.104791 87.483972c-56.610525 0-102.502298 45.891772-102.502298 102.502298L65.602494 612.296759c0 56.610525 45.891772 102.502298 102.502298 102.502298L213.802198 714.799057 213.802198 698.565435c0-45.198194 36.639968-81.838162 81.838162-81.838162l1.022977 0c45.198194 0 81.838162 36.639968 81.838162 81.838162l0 16.234645 263.720408 0L642.221906 698.565435c0-45.198194 36.639968-81.838162 81.838162-81.838162l1.022977 0c45.198194 0 81.838162 36.639968 81.838162 81.838162l0 16.234645 48.977071 0c56.610525 0 102.502298-45.891772 102.502298-102.502298L958.400575 189.98627zM609.31785 592.283237c-9.669179 5.687752-21.044683 9.669179-34.126513 11.375504-26.732436-46.639568-45.500995-86.453834-55.739972-120.580348 9.100404-5.687752 19.338358-9.669179 31.852436-11.375504 10.237954 22.751009 19.907133 42.658142 28.438761 59.721399 46.639568-10.806729 92.141586-15.925706 137.074829-15.925706 2.843876 10.806729 4.550202 20.475908 4.550202 29.007536-40.951816 7.394078-83.609958 13.08183-126.836875 17.632032C600.786222 575.21998 605.905199 585.457934 609.31785 592.283237zM437.546709 451.226981c5.118977 10.237954 8.531628 19.907133 10.237954 29.007536-19.338358 6.825303-36.97039 13.08183-53.464871 17.632032-4.550202-8.531628-7.394078-18.200807-9.669179-29.007536C400.007544 460.327385 417.639576 454.639632 437.546709 451.226981zM373.843884 521.755109c35.264064-7.394078 69.390577-10.806729 102.37954-10.806729 2.275101 10.806729 3.981427 20.475908 3.981427 29.007536-28.438761 4.550202-57.446298 9.100404-87.591385 12.513055 4.550202 7.962853 9.669179 17.063257 15.356931 27.301211-10.237954 6.825303-21.613459 11.94428-34.126513 15.925706-35.264064-56.877522-58.583848-95.554238-69.959353-117.167696 7.394078-7.962853 17.632032-13.08183 30.145087-16.494482C346.542673 479.665742 360.194302 499.572875 373.843884 521.755109zM411.951824 316.996028c63.702825-3.981427 127.40565-5.687752 192.247049-5.687752 2.275101 10.237954 3.412651 21.612436 3.412651 33.557738-63.702825 3.412651-127.975449 5.687752-192.246026 6.825303C413.090398 340.315812 411.951824 328.941331 411.951824 316.996028zM340.855944 177.077323c0-11.374482 0.568775-23.319784 2.275101-34.694266 116.598921 1.136527 230.353966 3.412651 341.834933 6.825303 0.568775 3.981427 1.136527 10.237954 1.136527 18.769582 0 6.825303-1.136527 12.513055-2.275101 17.063257C556.421754 183.33385 442.096911 180.490997 340.855944 177.077323zM618.417231 501.279201c-3.412651-8.531628-6.255504-18.769582-7.394078-30.145087 27.301211-9.100404 48.345894-13.650605 63.13405-13.650605 4.550202 9.100404 6.825303 19.338358 7.962853 29.576312C660.50762 492.747572 639.462937 497.866549 618.417231 501.279201zM558.695832 431.319848c-5.687752 10.806729-14.218358 20.475908-24.457335 28.438761-84.178733-31.851413-158.688288-65.409151-224.097439-100.674238 2.275101-10.237954 10.237954-19.90611 23.319784-29.006513 53.464871 23.888559 108.067293 48.345894 162.669714 73.372004 60.291197-29.576312 120.011572-55.739972 179.165219-77.354454 9.100404 9.670202 15.356931 19.338358 19.907133 29.576312-48.914669 23.889582-99.535664 46.639568-152.43176 68.253027C547.321351 426.200871 553.009103 428.475972 558.695832 431.319848zM610.455401 201.534657c22.182234 28.438761 39.814266 56.30977 52.896096 84.178733-12.513055 5.118977-23.889582 9.100404-34.695289 12.512032-18.200807-25.025087-35.265087-52.326298-50.620995-81.333834C587.135616 209.49751 597.942346 204.378533 610.455401 201.534657zM509.212388 211.203836c10.806729 5.118977 20.476931 11.375504 29.007536 19.338358-12.513055 21.613459-26.164683 42.089367-41.520591 60.290174-11.375504-6.256527-21.044683-12.512032-29.007536-18.769582C478.498525 250.449327 492.149131 229.973419 509.212388 211.203836zM384.082861 286.282166c-9.100404-6.255504-18.200807-13.650605-26.732436-22.749986 15.925706-26.732436 34.126513-47.777119 54.602422-62.565275 10.806729 6.825303 19.907133 14.219381 26.732436 22.182234C422.190801 245.899125 403.989994 266.943808 384.082861 286.282166z"  horiz-adv-x="1024" />

    
    <glyph glyph-name="fenxiang" unicode="&#58880;" d="M710.558242 433.640584h173.918051c13.608949 0 24.64019-11.04352 24.64019-24.65554v-397.445987c0-13.617136-11.226692-24.65554-24.64019-24.65554H139.523707c-13.608949 0-24.64019 11.04352-24.64019 24.65554V408.984021c0 13.617136 11.227716 24.65554 24.64019 24.655539h173.918051c13.707187 0 24.820292 11.112082 24.820292 24.820292 0 13.707187-11.113105 24.820292-24.820292 24.820292H114.875331c-27.545356 0-49.632397-22.125927-49.632398-49.420573v-447.196065c0-27.338648 22.221094-49.420573 49.632398-49.420573h794.248315c27.545356 0 49.633421 22.125927 49.633421 49.420573V433.859571c0 27.338648-22.222117 49.420573-49.633421 49.420573H710.558242c-13.707187 0-24.820292-11.113105-24.820292-24.820292s11.113105-24.819269 24.820292-24.819268zM516.65502 830.321138a25.212218 25.212218 0 0 1-9.858532-0.103354c-7.902994 1.678222-16.420995-0.560772-22.534226-6.674003L306.080094 645.361613c-9.599635-9.599635-9.577123-25.293059 0.115633-34.984792 9.760295-9.761318 25.356504-9.744945 34.985816-0.115634l146.000212 146.000212V110.936881c0-13.670348 11.112082-24.774243 24.820292-24.774243 13.802354 0 24.820292 11.091616 24.820291 24.774243V755.013989l144.751779-144.752802c9.599635-9.599635 25.293059-9.578146 34.985815 0.115634 9.760295 9.760295 9.744945 25.356504 0.115634 34.984792L538.491351 823.543781c-5.910617 5.909593-14.129812 8.173147-21.836331 6.777357z"  horiz-adv-x="1024" />

    
    <glyph glyph-name="qq" unicode="&#58902;" d="M511.84005 896C229.624242 896 0 666.247798 0 384.03199c0-282.343768 229.624242-512.03199 511.84005-512.03199s511.84005 229.752202 511.84005 512.03199C1023.6801 666.247798 794.055858 896 511.84005 896z m0-974.479475c-255.024305 0-462.383505 207.42318-462.383505 462.511465C49.456545 638.992315 256.815745 846.479475 511.84005 846.479475c254.960325 0 462.255545-207.48716 462.255545-462.447485 0.06398-255.088285-207.29522-462.511465-462.255545-462.511465zM726.556951 396.380131c9.213121 6.973821 15.739082 21.625242 15.739081 38.899844 0 23.928522-12.156201 43.314464-27.255482 43.314464l-0.51184-0.12796c1.34358 9.277101 2.8791 18.426242 2.8791 28.023243 0 110.237551-89.891909 199.553639-201.08916 199.553639-111.005311 0-201.08916-89.316089-201.089159-199.553639 0-10.620681 1.53552-20.857482 3.13502-31.030303-10.172821-6.270041-17.466542-21.753202-17.466542-40.179444 0-10.492721 2.68716-19.769822 6.589941-27.255483a228.408622 228.408622 0 0 1-36.084723-52.463605c-28.535083-56.878226-24.248422-114.396251-6.717901-123.673352 9.149141-4.86248 33.077663 10.940581 56.366385 39.475664a147.154014 147.154014 0 0 1 43.378445-88.420369c-39.987504-11.580381-66.731147-34.549203-63.212247-58.093845 4.41462-29.494783 54.383005-48.496845 111.709091-42.354764 42.354764 4.67054 76.648047 21.689222 90.019869 42.162824 3.5189-0.19194 6.845861-0.89572 10.428741-0.89572 6.142081 0 12.028241 1.08766 17.978382 1.47154 14.331521-19.577882 46.513465-36.020744 85.861168-41.011184 55.598625-7.101781 103.64761 11.132521 107.486411 40.563324 3.00706 23.416682-23.032802 46.705405-61.612746 58.989565 22.776882 23.288722 37.748204 51.823805 42.034864 83.301969 20.793502-28.663043 42.098844-47.345205 53.167385-44.849985 12.987941 2.81512 22.265042 63.276226-1.40756 121.114152a241.396564 241.396564 0 0 1-30.326523 53.039425z"  horiz-adv-x="1024" />

    
    <glyph glyph-name="rili" unicode="&#58887;" d="M771.567757 760.655476H734.328621V797.894611c0 20.565385-16.656355 37.239136-37.239136 37.239136s-37.239136-16.673751-37.239136-37.239136v-37.239135H548.131919V797.894611c0 20.565385-16.656355 37.239136-37.239136 37.239136s-37.239136-16.673751-37.239136-37.239136v-37.239135H361.935216V797.894611c0 20.565385-16.656355 37.239136-37.239136 37.239136-20.583804 0-37.239136-16.673751-37.239136-37.239136v-37.239135h-35.31225c-102.626355 0-186.342012-83.460854-186.66947-186.051394l-1.381464-446.945355c-0.145309-49.749054 19.128663-96.534614 54.222949-131.719973 35.093263-35.184337 81.788771-54.549384 131.50201-54.549384h521.823739c102.626355 0 186.124048 83.516112 186.124048 186.178283V574.494589c-0.002047 102.644775-83.535555 186.160887-186.198749 186.160887z m111.718431-633.087823c0-61.58666-50.076512-111.700011-111.645776-111.700011H249.816672c-29.78435 0-57.750285 11.601222-78.770018 32.65677-21.019733 21.092387-32.5483 49.130977-32.475645 78.933747l1.036609 335.282183h743.67857v-335.172689z m0 409.650961H139.837862l0.11461 37.166481c0.182149 61.640895 50.513464 111.791086 112.191199 111.791086h35.31225v-37.239136c0-20.565385 16.656355-37.239136 37.239136-37.239136 20.583804 0 37.239136 16.673751 37.239136 37.239136v37.239136h111.718431v-37.239136c0-20.565385 16.656355-37.239136 37.239135-37.239136s37.239136 16.673751 37.239136 37.239136v37.239136h111.718431v-37.239136c0-20.565385 16.656355-37.239136 37.239136-37.239136s37.239136 16.673751 37.239136 37.239136v37.239136h37.239136c61.60508 0 111.718431-50.094932 111.718431-111.681592v-37.275975zM447.323978 101.14691a37.21253 37.21253 0 0 1 26.329669-10.909467 37.2156 37.2156 0 0 1 26.329668 10.909467l223.435839 223.545333c14.546298 14.546298 14.546298 38.130436 0 52.658313-14.546298 14.546298-38.112016 14.546298-52.658314 0L473.652624 180.153312l-85.388763 85.424578c-14.546298 14.546298-38.112016 14.528901-52.659337 0.01842-14.546298-14.546298-14.546298-38.130436 0-52.676733l111.719454-111.772667z"  horiz-adv-x="1024" />

    
    <glyph glyph-name="shouyehui" unicode="&#58888;" d="M1138.858244 259.840352c-8.878613 0-17.616295 3.664189-23.958161 10.710708L632.636389 812.992018c-10.851638 12.120011-24.944674 18.884668-39.883292 18.884668-14.938618 0-29.172585-6.764657-39.883292-18.884668L71.592623 270.55106c-11.69722-13.247454-32.132122-14.374897-45.238646-2.677677-13.247454 11.83815-14.374897 31.991192-2.677676 45.238646L504.812552 855.552987c23.112579 26.072117 54.399119 40.447013 87.940545 40.447013 33.541426 0 64.687036-14.374897 87.799614-40.447013l482.263694-542.440958c11.83815-13.247454 10.569777-33.541426-2.677677-45.238646-6.060006-5.355354-13.670245-8.033031-21.280484-8.033031zM977.492981 321.004129v-320.757501c0-35.373521-28.749794-64.123314-64.123314-64.123314h-128.246628v256.493256c0 70.747041-57.499587 128.246628-128.246628 128.246628h-128.246628c-70.747041 0-128.246628-57.499587-128.246629-128.246628v-256.493256h-128.246628c-35.373521 0-64.123314 28.749794-64.123314 64.123314V321.004129H143.748968v-320.757501c0-70.747041 57.499587-128.246628 128.246628-128.246628h192.369942V192.61657c0 35.373521 28.749794 64.123314 64.123314 64.123314h128.246628c35.373521 0 64.123314-28.749794 64.123314-64.123314v-320.61657H913.228737c70.747041 0 128.246628 57.499587 128.246628 128.246628V321.004129h-63.982384z"  horiz-adv-x="1429" />

    
    <glyph glyph-name="shaixuan" unicode="&#58911;" d="M920 726c-15.4 37.4-53 61.5-95.6 61.5H199.8c-42.5 0-80-24-95.5-61.2-14.6-34.8-6.8-73.5 20.3-100.9l210.8-213.7 0.1-0.1 36.6-37.1c10.6-10.8 16.7-26.1 16.7-41.9l0.2-165.8c0-18.4 14.9-33.3 33.4-33.3 18.4 0 33.4 15 33.3 33.4l-0.2 165.9c0 33.2-13.2 65.5-36 88.7l-190 192.6-0.3 0.3-57.3 58.1c-11 11.2-8.7 22.6-6.2 28.4 4.1 9.8 15.2 20.3 34 20.3h624.6c18.9 0 29.9-10.5 33.9-20.3 2.3-5.7 4.6-16.9-6.9-28.3l-200-207.9c-1.6-1.7-3.1-3.5-4.3-5.5l-36.4-38c-22.8-23.1-35.9-55.5-36-88.7l-0.4-320c0-18.4 14.9-33.4 33.3-33.4s33.3 14.9 33.4 33.3l0.4 320c0 15.9 6.1 31.2 17.1 42.3L848 572.6l51 52.9c27.4 27.1 35.4 65.7 21 100.5z"  horiz-adv-x="1024" />

    
    <glyph glyph-name="men" unicode="&#58889;" d="M1024.012 19.445c-0.006 155.74-89.433 288.857-215.897 343.147 61.248 44.142 101.614 119.342 101.614 204.747 0 116.592-75.2 214.174-176.152 239.551-0.298 0.078-0.639 0.123-0.991 0.123-0.608 0-1.184-0.134-1.701-0.374-1.118 0.128-2.238 0.391-3.404 0.391-21.567 0-39.048-18.864-39.048-42.125 0-21.004 14.298-38.274 32.951-41.451 3.318-1.46 7.674-2.568 7.844-2.638 58.463-21.397 100.524-81.003 100.524-151.29 0-78.371-52.337-143.494-121.364-157.123-0.094-0.006-0.176-0.199-0.276-0.252-22.962-1.565-41.193-21.948-41.193-47.096 0-25.536 18.765-46.223 42.225-47.231 0.158-0.088 0.305-0.363 0.469-0.369 138.827-15.253 237.235-142.79 237.235-298.014 0-22.98 17.276-41.61 38.585-41.61 20.787 0 37.612 17.774 38.426 39.98 0.023 0.217 0.152 0.387 0.152 0.61 0 0.076-0.029 0.152-0.029 0.252 0.012 0.252 0.029 0.504 0.029 0.756v0.018zM561.664 355.686c73.148 52.853 121.317 142.72 121.317 244.797 0 162.663-122.267 294.532-273.1 294.532-150.827 0-273.106-131.869-273.106-294.532 0-102.089 48.187-191.944 121.317-244.797-151.191-65.070-258.087-224.309-258.087-410.579 0-10.487 0.551-20.816 1.296-31.087h0.070c0-22.675 17.041-41.035 38.069-41.035 21.010 0 38.057 18.366 38.057 41.035 0 1.278-0.24 2.486-0.352 3.734-0.733 9.039-1.36 18.091-1.36 27.353 0 198.991 149.579 360.305 334.101 360.305 184.529 0 334.107-161.315 334.107-360.305 0-9.602-0.627-19.046-1.413-28.414-0.006-0.487-0.129-0.932-0.129-1.425 0-0.147 0.047-0.293 0.047-0.434-0.023-0.27-0.018-0.551-0.047-0.815h0.123c0.627-22.065 17.323-39.792 37.934-39.792 20.623 0 37.313 17.715 37.946 39.792h0.082c0.721 10.276 1.231 20.611 1.231 31.075-0.012 186.281-106.902 345.521-258.105 410.591zM409.881 388.918c-108.344 0-196.171 94.721-196.171 211.565 0 116.838 87.827 211.565 196.171 211.565s196.171-94.721 196.171-211.565-87.827-211.565-196.171-211.565z"  horiz-adv-x="1024" />

    
    <glyph glyph-name="xiangshangjiantouarrowup" unicode="&#58882;" d="M880.101759 142.5100980000003c18.020155-17.819854 47.143649-17.819854 65.097286 0 17.953637 17.753339 17.953637 46.610574 0 64.429405L544.042085 602.8935099999999c-18.020155 17.819854-47.077131 17.819854-65.097286 0L77.787839 206.94052600000032c-17.953637-17.819854-18.020155-46.610574 0-64.429405s47.210166-17.819854 65.097286-0.066515l368.641064 350.141612L880.101759 142.5100980000003 880.101759 142.5100980000003z"  horiz-adv-x="1024" />

    
    <glyph glyph-name="wenda" unicode="&#58938;" d="M512 892.207407C227.555556 892.207407 0 668.444444 0 399.17037c0-140.325926 60.681481-265.481481 155.496296-356.503703L113.777778-124.207407l212.385185 60.681481c56.888889-22.755556 121.362963-34.133333 185.837037-34.133333 284.444444 0 512 219.97037 512 493.037037S796.444444 892.207407 512 892.207407z m37.925926-750.933333c-11.377778-7.585185-22.755556-15.17037-34.133333-15.17037s-26.548148 3.792593-34.133334 15.17037c-11.377778 7.585185-15.17037 22.755556-15.17037 34.133333 0 15.17037 3.792593 26.548148 15.17037 34.133334 11.377778 7.585185 22.755556 15.17037 34.133334 15.17037s26.548148-3.792593 37.925926-15.17037c7.585185-7.585185 15.17037-22.755556 15.17037-34.133334-3.792593-11.377778-7.585185-26.548148-18.962963-34.133333z m94.814815 292.02963c-7.585185-7.585185-26.548148-22.755556-56.888889-53.096297-11.377778-11.377778-18.962963-22.755556-26.548148-34.133333-7.585185-11.377778-11.377778-26.548148-11.377778-41.718518v-7.585186h-75.851852v7.585186c0 26.548148 3.792593 45.511111 11.377778 64.474074 7.585185 18.962963 34.133333 45.511111 75.851852 83.437037l7.585185 7.585185c11.377778 15.17037 18.962963 30.340741 18.962963 45.511111 0 22.755556-7.585185 37.925926-18.962963 49.303704-11.377778 11.377778-30.340741 18.962963-53.096296 18.962963-30.340741 0-49.303704-7.585185-60.681482-26.548149-11.377778-15.17037-15.17037-37.925926-15.17037-64.474074h-75.851852c0 49.303704 15.17037 87.22963 41.718518 113.777778 26.548148 26.548148 64.474074 41.718519 113.777778 41.718519 41.718519 0 75.851852-11.377778 102.4-34.133334 26.548148-22.755556 37.925926-53.096296 37.925926-94.814814 7.585185-26.548148 0-53.096296-15.17037-75.851852z"  horiz-adv-x="1024" />

    
    <glyph glyph-name="gouwuche" unicode="&#58907;" d="M1043.584 608l-106.624-320H384a32 32 0 0 1 0-64h576a32 32 0 0 1 30.336 21.888l128 384A32 32 0 0 1 1088 672H320a32 32 0 0 1 0-64h723.584zM368.256 100.15999999999997a32 32 0 0 0-15.744 22.144L229.312 800H64a32 32 0 0 0 0 64h192a32 32 0 0 0 31.488-26.24L410.688 160H960a32 32 0 0 0 15.744-59.84 128 128 0 1 0-164.416-4.16H532.672a128 128 0 1 0-164.416 4.16zM448-64a64 64 0 1 1 0 128 64 64 0 0 1 0-128z m448 0a64 64 0 1 1 0 128 64 64 0 0 1 0-128z"  horiz-adv-x="1152" />

    
    <glyph glyph-name="home" unicode="&#58883;" d="M927.744-70.65599999999995H135.168c-16.384 0-32.768 8.192-43.008 20.48-10.24 14.336-14.336 30.72-10.24 47.104 40.96 208.896 210.944 364.544 415.744 380.928 8.192 2.048 14.336 2.048 24.576 2.048v-20.48c-8.192 0-14.336 0-22.528-2.048-196.608-14.336-360.448-163.84-399.36-364.544-2.048-10.24 0-22.528 8.192-30.72 6.144-8.192 16.384-12.288 26.624-12.288h792.576c10.24 0 20.48 4.096 26.624 12.288 6.144 8.192 10.24 18.432 8.192 30.72-24.576 131.072-104.448 243.712-217.088 307.2-12.288 8.192-26.624 14.336-38.912 20.48l8.192 18.432c14.336-6.144 28.672-14.336 40.96-20.48 118.784-67.584 200.704-184.32 227.328-321.536 4.096-16.384 0-32.768-12.288-47.104-10.24-12.288-26.624-20.48-43.008-20.48z m-399.36 430.08h-4.096v20.48h6.144l-2.048-20.48zM536.576 359.424c-129.024 0-235.52 106.496-235.52 235.52S407.552 830.4639999999999 536.576 830.4639999999999s235.52-106.496 235.52-235.52-106.496-235.52-235.52-235.52z m0 450.56c-118.784 0-215.04-96.256-215.04-215.04s96.256-215.04 215.04-215.04 215.04 96.256 215.04 215.04S655.36 809.984 536.576 809.984z"  horiz-adv-x="1024" />

    
    <glyph glyph-name="dianying-" unicode="&#58901;" d="M571.1 351.9m-389.1 0a389.1 389.1 0 1 1 778.2 0 389.1 389.1 0 1 1-778.2 0ZM361.8 42.6c-11 4.4-21.7 9.3-32.1 14.7-16.3 8.5-36.6 2.1-45-14.3-8.5-16.4-2.1-36.6 14.3-45 12.3-6.4 25.1-12.2 38.1-17.4 4.1-1.6 8.3-2.4 12.4-2.4 13.2 0 25.8 8 31 21 6.8 17.1-1.6 36.5-18.7 43.4zM498.3 481.2c23.5 0 47.1 8.9 65 26.9 35.8 35.8 35.8 94.1 0 129.9-35.8 35.8-94.1 35.8-129.9 0s-35.8-94.1 0-129.9c17.8-17.9 41.3-26.9 64.9-26.9z m-29.6 121.4c8.2 8.1 18.8 12.2 29.5 12.2s21.4-4.1 29.5-12.2c16.3-16.3 16.3-42.8 0-59.1-16.3-16.3-42.8-16.3-59.1 0-16.2 16.3-16.2 42.8 0.1 59.1zM244.2 449c-17.4-17.3-26.9-40.4-26.9-65 0-24.5 9.6-47.6 26.9-65 17.9-17.9 41.4-26.9 65-26.9s47.1 9 65 26.9c35.8 35.9 35.8 94.1 0 129.9s-94.1 35.9-130 0.1z m94.6-94.5c-16.3-16.3-42.8-16.3-59.1 0-7.9 7.9-12.2 18.4-12.2 29.5 0 11.2 4.3 21.6 12.2 29.5 8.2 8.2 18.9 12.2 29.6 12.2 10.7 0 21.4-4 29.5-12.2 16.3-16.3 16.2-42.7 0-59zM752.3 319c17.4 17.4 26.9 40.4 26.9 65s-9.6 47.6-26.9 65c-35.8 35.8-94.1 35.8-130 0-35.8-35.8-35.8-94.1 0-129.9 17.9-17.9 41.4-26.9 65-26.9 23.5-0.1 47.1 8.9 65 26.8z m-94.6 94.5c16.3 16.3 42.8 16.3 59.1 0 7.9-7.9 12.2-18.4 12.2-29.5 0-11.2-4.3-21.6-12.2-29.5-16.3-16.3-42.8-16.3-59.1 0-16.2 16.3-16.2 42.7 0 59zM433.3 130c17.9-17.9 41.4-26.9 65-26.9 23.5 0 47.1 9 65 26.9 17.4 17.3 26.9 40.4 26.9 65 0 24.5-9.6 47.6-26.9 65-35.8 35.8-94.1 35.8-129.9 0-17.4-17.4-26.9-40.4-26.9-65-0.1-24.6 9.4-47.7 26.8-65z m35.4 94.5c8.2 8.1 18.8 12.2 29.5 12.2s21.4-4.1 29.5-12.2c7.9-7.9 12.2-18.4 12.2-29.5s-4.3-21.6-12.2-29.5c-16.3-16.3-42.8-16.3-59.1 0-7.9 7.9-12.2 18.4-12.2 29.5s4.4 21.6 12.3 29.5zM900.2 16.4H728.7c122.3 76.9 204 212.8 204 367.6 0 239.5-194.9 434.4-434.4 434.4S63.8 623.5 63.8 384c0-123.9 53.1-242.2 145.7-324.6 13.7-12.3 34.9-11 47.2 2.7 12.3 13.8 11 34.9-2.7 47.2-78.4 69.8-123.3 169.9-123.3 274.7 0 202.7 164.9 367.6 367.6 367.6S865.8 586.7 865.8 384 700.9 16.4 498.3 16.4c-19.2 0-38.3 1.5-57 4.4-18.1 2.6-35.3-9.7-38.2-27.9-2.8-18.2 9.6-35.3 27.9-38.2 22-3.4 44.7-5.2 67.3-5.2 9.3 0 18.5 0.8 27.7 1.4 2.3-0.5 4.5-1.4 7-1.4h367.4c18.5 0 33.4 14.9 33.4 33.4s-15.1 33.5-33.6 33.5z"  horiz-adv-x="1024" />

    
    <glyph glyph-name="dingwei4" unicode="&#58953;" d="M510.615978 833.646883c-185.28903 0-335.492984-150.203954-335.492984-335.49196 0-185.288007 150.203954-335.512427 335.492984-335.512427 185.28596 0 335.496054 150.22442 335.496054 335.512427C846.113055 683.441906 695.902962 833.646883 510.615978 833.646883M510.615978 340.526883c-87.055728 0-157.629063 70.573335-157.629063 157.627017s70.573335 157.627017 157.629063 157.627017c87.059821 0 157.627017-70.573335 157.627017-157.627017S597.6758 340.526883 510.615978 340.526883M239.179916 301.028287L510.615978-62.955588000000034 776.097422 292.992263Z"  horiz-adv-x="1024" />

    
    <glyph glyph-name="jinqian" unicode="&#58897;" d="M512 668.04736c-156.58496 0-284.04736-127.45728-284.04736-284.04736 0-156.59008 127.45728-284.04736 284.04736-284.04736 156.59008 0 284.04736 127.45728 284.04736 284.04736 0 156.58496-127.45728 284.04736-284.04736 284.04736z m137.96352-121.66144l-112.59904-149.84704h76.07808a20.25984 20.25984 0 0 0 20.29056-20.29056 20.25984 20.25984 0 0 0-20.29056-20.29056h-81.15712v-40.576h81.15712c11.23328 0 20.29056-9.0624 20.29056-20.29056s-9.05728-20.28544-20.29056-20.28544h-81.15712v-60.87168h-0.0768c0-0.14336 0.0768-0.3584 0.0768-0.50688a20.25984 20.25984 0 0 0-20.29056-20.29056 20.25472 20.25472 0 0 0-20.29056 20.29056c0 0.14336 0.07168 0.3584 0.07168 0.50688h-0.07168v60.87168H410.55744c-11.23328 0-20.28544 9.05728-20.28544 20.28544s9.05728 20.29056 20.28544 20.29056h81.15712v40.576H410.55744a20.25472 20.25472 0 0 0-20.28544 20.29056 20.25472 20.25472 0 0 0 20.28544 20.29056h76.0832L374.10816 546.38592a20.24448 20.24448 0 0 0 3.98336 28.40576 20.22912 20.22912 0 0 0 28.40576-3.98336L512 430.30016l105.50272 140.50304c6.7328 8.84224 19.42016 10.79296 28.47744 3.98336a20.29568 20.29568 0 0 0 3.98336-28.40064zM512.6144 872.96c-270.75072 0-490.24-219.48928-490.24-490.24S241.86368-107.52 512.6144-107.52c270.75584 0 490.24 219.48928 490.24 490.24S783.37024 872.96 512.6144 872.96zM512 59.37664c-179.27168 0-324.62336 145.36192-324.62336 324.62336 0 179.27168 145.3568 324.62336 324.62336 324.62336s324.62336-145.3568 324.62336-324.62336-145.3568-324.62336-324.62336-324.62336z"  horiz-adv-x="1024" />

    
    <glyph glyph-name="qianjin-copy" unicode="&#58894;" d="M441.408-64L0 377.08799999999997 437.184 814.336l51.84-51.84-348.8-348.736L1024 413.76l0-73.216-883.648 0L493.12000001-12.159999999999968z"  horiz-adv-x="1024" />

    
    <glyph glyph-name="gouwuche1" unicode="&#58898;" d="M332.8 105.47199999999998q19.456 0 36.864-7.168t30.208-19.968 20.48-30.208 7.68-36.864-7.68-36.864-20.48-30.208-30.208-20.48-36.864-7.68q-20.48 0-37.888 7.68t-30.208 20.48-20.48 30.208-7.68 36.864 7.68 36.864 20.48 30.208 30.208 19.968 37.888 7.168zM758.784 103.42399999999998q19.456 0 37.376-7.168t30.72-19.968 20.48-30.208 7.68-36.864-7.68-36.864-20.48-30.208-30.72-20.48-37.376-7.68-36.864 7.68-30.208 20.48-20.48 30.208-7.68 36.864 7.68 36.864 20.48 30.208 30.208 19.968 36.864 7.168zM930.816 685.056q28.672 0 44.544-7.68t22.528-18.944 6.144-24.064-3.584-22.016-13.312-37.888-22.016-62.976-23.552-68.096-18.944-53.248q-13.312-40.96-33.28-56.832t-49.664-15.872l-35.84 0-65.536 0-86.016 0-96.256 0-253.952 0 14.336-92.16 517.12 0q49.152 0 49.152-41.984 0-20.48-9.728-35.84t-38.4-14.336l-49.152 0-94.208 0-118.784 0-119.808 0-99.328 0-55.296 0q-20.48 0-34.304 9.216t-23.04 24.064-14.848 32.256-8.704 32.768q-1.024 6.144-5.632 29.696t-11.264 58.88-14.848 78.848-16.384 87.552q-19.456 103.424-44.032 230.4l-76.8 0q-15.36 0-25.6 7.68t-16.896 18.432-9.216 23.04-2.56 22.528q0 20.48 13.824 33.792t37.376 12.288l103.424 0q20.48 0 32.768-6.144t19.456-15.36 10.24-18.944 5.12-16.896q2.048-8.192 4.096-23.04t4.096-30.208q3.072-18.432 6.144-38.912l700.416 0zM892.928 593.9200000000001l-641.024 2.048 35.84-185.344 535.552-1.024z"  horiz-adv-x="1028" />

    
    <glyph glyph-name="mjiantou" unicode="&#58900;" d="M683.9808 384L267.6224 800.3328 303.8208 836.5568 720.4608 419.9168 756.3776 384 303.8208-68.55679999999995 267.6224-32.33280000000002Z"  horiz-adv-x="1024" />

    


  </font>
</defs>
</svg>
